<svg xmlns="http://www.w3.org/2000/svg">

    <!-- Aquí estarán nuestros íconos -->

    <symbol id="home" viewBox="0 0 512 512" style="enable-background:new 0 0 512 512;">
        <title>Inicio</title>
        <g>
            <g>
                <path d="M506.555,208.064L263.859,30.367c-4.68-3.426-11.038-3.426-15.716,0L5.445,208.064
                    c-5.928,4.341-7.216,12.665-2.875,18.593s12.666,7.214,18.593,2.875L256,57.588l234.837,171.943c2.368,1.735,5.12,2.57,7.848,2.57
                    c4.096,0,8.138-1.885,10.744-5.445C513.771,220.729,512.483,212.405,506.555,208.064z"/>
            </g>
        </g>
        <g>
            <g>
                <path d="M442.246,232.543c-7.346,0-13.303,5.956-13.303,13.303v211.749H322.521V342.009c0-36.68-29.842-66.52-66.52-66.52
                    s-66.52,29.842-66.52,66.52v115.587H83.058V245.847c0-7.347-5.957-13.303-13.303-13.303s-13.303,5.956-13.303,13.303v225.053
                    c0,7.347,5.957,13.303,13.303,13.303h133.029c6.996,0,12.721-5.405,13.251-12.267c0.032-0.311,0.052-0.651,0.052-1.036v-128.89
                    c0-22.009,17.905-39.914,39.914-39.914s39.914,17.906,39.914,39.914v128.89c0,0.383,0.02,0.717,0.052,1.024
                    c0.524,6.867,6.251,12.279,13.251,12.279h133.029c7.347,0,13.303-5.956,13.303-13.303V245.847
                    C455.549,238.499,449.593,232.543,442.246,232.543z"/>
            </g>
        </g>

    </symbol>

    <symbol id="users" viewBox="0 0 512.001 512.001" style="enable-background:new 0 0 512.001 512.001;" xml:space="preserve">
        <title>Control de usuarios</title>
        <g>
            <g>
                <path d="M270.948,302.936c-10.562-14.943-27.525-24.074-45.713-24.765c-0.385-0.043-0.775-0.067-1.171-0.067
                    c-23.135,0-42.252-17.484-44.859-39.93c6.661-4.851,12.807-11.007,18.254-18.381c11.015-14.913,18.165-33.547,20.816-53.698
                    c0.812-0.883,1.496-1.911,1.987-3.081c4.664-11.106,7.029-22.963,7.029-35.242c0-47.221-35.702-85.637-79.584-85.637
                    c-11.349,0-22.36,2.578-32.768,7.665c-3.891,0.328-7.704,1.028-11.365,2.088c-36.686,10.599-57.421,54.957-46.22,98.88
                    c1.127,4.419,2.56,8.765,4.262,12.916c0.464,1.134,1.114,2.13,1.88,3c4.225,31.022,18.908,56.833,38.989,71.434
                    c-2.581,22.474-21.712,39.988-44.867,39.988c-0.356,0-0.708,0.019-1.056,0.053C25.185,279.268,0,305.121,0,336.763v63.14
                    c0,5.891,4.775,10.666,10.666,10.666h188.451c5.89,0,10.666-4.775,10.666-10.666s-4.776-10.666-10.666-10.666H21.331v-52.475
                    c0-20.585,16.746-37.33,37.33-37.33c0.356,0,0.708-0.019,1.056-0.053c7.683-0.24,15.04-1.786,21.858-4.429l50.497,72.883
                    c1.992,2.875,5.268,4.592,8.767,4.592c3.499,0,6.775-1.716,8.767-4.592l50.498-72.883c6.819,2.643,14.175,4.189,21.858,4.429
                    c0.348,0.034,0.7,0.053,1.056,0.053c12.105,0,23.511,5.912,30.51,15.815c2.078,2.94,5.372,4.51,8.719,4.51
                    c2.128,0,4.277-0.636,6.147-1.957C273.205,314.402,274.347,307.746,270.948,302.936z M109.492,72.377
                    c2.798-0.808,5.757-1.288,8.796-1.425c1.566-0.07,3.094-0.484,4.482-1.213c7.926-4.164,16.314-6.276,24.933-6.276
                    c31.47,0,57.174,27.694,58.204,62.162c-6.414-4.85-14.393-7.733-23.035-7.733h-55.779c-2.778,0-5.416-0.872-7.625-2.521
                    c-1.891-1.411-3.351-3.305-4.224-5.482c-2.015-5.014-7-8.146-12.383-7.806c-5.416,0.347-9.973,4.111-11.338,9.361
                    c-2.721,10.453-7.801,20.188-14.708,28.455C71.283,108.973,85.213,79.392,109.492,72.377z M84.479,162.705
                    c9.316-8.54,16.855-18.89,22.119-30.32c0.036,0.027,0.073,0.054,0.11,0.081c5.925,4.422,12.973,6.758,20.384,6.758h55.779
                    c6.7,0,12.487,3.92,15.234,9.577c-0.071,22.157-6.384,42.854-17.806,58.315c-10.771,14.58-24.785,22.61-39.462,22.61
                    c-13.583,0-26.807-7.017-37.236-19.757C93.483,197.61,86.788,180.974,84.479,162.705z M140.838,343.031l-40.817-58.912
                    c10.95-9.086,18.932-21.616,22.307-35.908c5.943,1.86,12.141,2.848,18.509,2.848c6.334,0,12.537-0.961,18.52-2.817
                    c3.379,14.278,11.358,26.796,22.3,35.876L140.838,343.031z"/>
            </g>
        </g>
        <g>
            <g>
                <path d="M455.441,337.455c-0.348-0.034-0.7-0.053-1.056-0.053c-23.167,0-42.305-17.531-44.871-40.023
                    c13.062-9.512,23.832-23.774,30.931-41.119c1.016,3.324,3.617,6.008,7.039,7.069c1.04,0.322,2.104,0.479,3.157,0.479
                    c3.232,0,6.36-1.473,8.417-4.114c14.881-19.112,22.616-43.986,21.784-70.041c-0.818-25.56-9.803-49.555-25.303-67.563
                    c-15.869-18.438-36.819-28.699-59.012-28.911c-1.177-0.048-4.104,0.053-4.577,0.082c-11.402-5.172-23.45-7.588-35.858-7.194
                    c-25.625,0.819-49.196,13.591-66.369,35.963c-16.688,21.741-25.355,50.098-24.404,79.85c0.161,5.041,0.559,9.683,1.203,14.103
                    c1.737,12.679,5.23,24.822,10.381,36.091c1.639,3.587,5.124,5.977,9.06,6.213c3.923,0.237,7.681-1.718,9.739-5.083
                    c0.858-1.403,1.961-3.152,3.178-4.866c4.755,14.445,12.024,27.423,21.253,37.669c3.937,4.371,8.189,8.173,12.667,11.416
                    c-2.586,22.469-21.715,39.977-44.866,39.977c-0.356,0-0.708,0.019-1.056,0.053c-31.374,1.112-56.558,26.967-56.558,58.607v63.14
                    c0,5.891,4.776,10.666,10.666,10.666h260.346c5.89,0,10.666-4.775,10.666-10.666v-63.14
                    C512,364.422,486.815,338.568,455.441,337.455z M290.112,225.625c-1.052-4.108-1.876-8.321-2.467-12.626
                    c-0.54-3.708-0.868-7.568-1.003-11.799c-0.794-24.837,6.31-48.341,20.004-66.18c13.208-17.208,31.01-27.02,50.128-27.631
                    c0.639-0.021,14.387-0.795,28.421,6.277c1.569,0.79,3.377,1.157,5.138,1.107c0.202-0.006,5.677-0.265,5.836-0.263
                    c16.02,0.106,31.362,7.741,43.203,21.497c12.331,14.328,19.487,33.622,20.149,54.329c0.359,11.247-1.221,22.18-4.567,32.239
                    c-1.008-2.686-2.132-5.331-3.369-7.932c-10.298-21.91-27.633-38.881-48.812-47.788c-2.683-1.128-5.709-1.111-8.378,0.047
                    c-2.67,1.157-4.75,3.355-5.759,6.085c-1.42,3.836-3.14,7.573-5.116,11.106c-5.584,9.986-16.842,15.927-29.361,15.489
                    c-1.879-0.064-3.786-0.067-5.666-0.007c-9.223,0.295-18.217,2.053-26.78,5.242C313.255,208.009,299.041,216.018,290.112,225.625z
                    M316.351,231.43c4.044-2.709,8.347-4.94,12.853-6.643c6.344-2.362,13.063-3.672,19.97-3.893c1.41-0.046,2.838-0.044,4.246,0.005
                    c20.594,0.705,39.217-9.405,48.718-26.396c0.584-1.045,1.152-2.106,1.701-3.177c9.728,5.993,18.043,14.44,24.295,24.692
                    c-0.054,0.316-0.1,0.633-0.126,0.959c-1.636,20.237-8.617,38.809-19.658,52.295c-10.429,12.741-23.653,19.757-37.236,19.757
                    C346.004,289.027,323.666,265.158,316.351,231.43z M352.654,307.492c6.003,1.876,12.194,2.866,18.46,2.866
                    c6.384,0,12.597-0.994,18.555-2.864c4.284,18.163,16.029,33.466,31.818,42.495c-6.159,22.255-26.627,38.258-50.324,38.258
                    c-23.699,0-44.166-16.004-50.324-38.26C336.626,340.96,348.371,325.656,352.654,307.492z M490.669,448.537H251.654v-52.475
                    c0-20.583,16.746-37.33,37.33-37.33c0.356,0,0.708-0.019,1.056-0.053c3.673-0.115,7.274-0.519,10.775-1.209
                    c9.265,30.416,37.613,52.11,70.347,52.11c32.734,0,61.081-21.694,70.348-52.109c3.5,0.69,7.101,1.094,10.773,1.208
                    c0.348,0.034,0.7,0.053,1.056,0.053c20.584,0,37.33,16.746,37.33,37.33V448.537z"/>
            </g>
        </g>
    </symbol>

    <symbol id="evaluador" viewBox="-28 -19 618 618.66574">
        <title>Evaluador</title>
        <path d="m211.265625 264.132812c72.9375 0 132.066406-59.125 132.066406-132.066406 0-72.9375-59.128906-132.066406-132.066406-132.066406s-132.066406 59.128906-132.066406 132.066406c.070312 72.914063 59.15625 131.996094 132.066406 132.066406zm0-239.144531c59.140625 0 107.078125 47.945313 107.078125 107.078125 0 59.140625-47.9375 107.078125-107.078125 107.078125-59.136719 0-107.074219-47.9375-107.074219-107.078125.066406-59.109375 47.964844-107.007812 107.074219-107.078125zm0 0"/><path d="m554.492188 337.976562-107.703126-57.347656c-3.710937-2.023437-8.203124-1.976562-11.871093.121094l-98.582031 53.976562c-36.109376-26.863281-79.34375-40.855468-125.316407-40.855468-57.226562.125-110.328125 22.367187-149.6875 62.847656-39.859375 40.855469-61.726562 96.707031-61.597656 157.304688.019531 6.894531 5.601563 12.476562 12.492187 12.496093l347.597657-.625c16.339843 20.289063 37.347656 36.320313 61.222656 46.730469l14.496094 6.371094c1.574219.703125 3.28125 1.042968 5 1 1.710937-.03125 3.40625-.367188 4.996093-1l16.367188-7.121094c60.136719-25.230469 99.25-84.09375 99.207031-149.3125v-73.46875c.003907-4.640625-2.539062-8.910156-6.621093-11.117188zm-529.394532 163.429688c2.621094-49.105469 21.738282-93.957031 54.226563-127.320312 34.605469-35.609376 81.460937-55.226563 131.816406-55.226563h.375c41.359375 0 80.09375 12.996094 112.203125 37.609375v67.59375c.019531 26.835938 6.714844 53.242188 19.488281 76.839844zm511.027344-78.84375c.023438 55.21875-33.140625 105.039062-84.089844 126.324219h-.125l-11.367187 4.871093-9.5-4.125c-49.96875-21.832031-82.28125-71.160156-82.335938-125.691406v-67.597656l92.332031-50.601562 95.085938 50.726562zm0 0"/><path d="m406.804688 415.941406c-4.484376-5.242187-12.371094-5.855468-17.617188-1.371094-5.242188 4.484376-5.855469 12.371094-1.371094 17.613282l28.359375 33.109375c2.382813 2.769531 5.847657 4.363281 9.496094 4.375 2.863281.023437 5.644531-.945313 7.871094-2.75l65.972656-53.597657c5.347656-4.382812 6.128906-12.269531 1.746094-17.621093-4.378907-5.347657-12.265625-6.128907-17.613281-1.746094l-56.476563 45.980469zm0 0"/>
    </symbol>

    <symbol id="toggle" viewBox="0 0 502 502" style="enable-background:new 0 0 502 502;" fill="#7A8A65">
        <title>Menu</title>
        <g>
            <g>
                <g>
                    <path d="M445.317,143.126H56.683C25.428,143.126,0,117.698,0,86.443C0,55.188,25.428,29.76,56.683,29.76h388.635
                        C476.572,29.76,502,55.188,502,86.443C502,117.698,476.572,143.126,445.317,143.126z M56.683,49.76
                        C36.456,49.76,20,66.216,20,86.443s16.456,36.683,36.683,36.683h388.635c20.227,0,36.683-16.456,36.683-36.683
                        S465.544,49.76,445.317,49.76H56.683z"/>
                </g>
            </g>
            <g>
                <g>
                    <path d="M445.317,307.683H56.683C25.428,307.683,0,282.255,0,251s25.428-56.683,56.683-56.683h388.635
                        C476.572,194.317,502,219.745,502,251S476.572,307.683,445.317,307.683z M56.683,214.317C36.456,214.317,20,230.773,20,251
                        s16.456,36.683,36.683,36.683h388.635C465.544,287.683,482,271.227,482,251s-16.456-36.683-36.683-36.683H56.683z"/>
                </g>
            </g>
            <g>
                <g>
                    <path d="M445.317,472.24H56.683C25.428,472.24,0,446.812,0,415.557c0-31.255,25.428-56.683,56.683-56.683h388.635
                        c31.255,0,56.683,25.428,56.683,56.683C502,446.812,476.572,472.24,445.317,472.24z M56.683,378.874
                        C36.456,378.874,20,395.33,20,415.557s16.456,36.683,36.683,36.683h388.635c20.227,0,36.683-16.456,36.683-36.683
                        s-16.456-36.683-36.683-36.683H56.683z"/>
                </g>
            </g>
            <g>
                <path d="M230.576,87.106H57.85c-5.523,0-10-4.477-10-10s4.477-10,10-10h172.726c5.523,0,10,4.477,10,10
                    S236.099,87.106,230.576,87.106z"/>
            </g>
            <g>
                <path d="M297.099,87.106h-19.84c-5.523,0-10-4.477-10-10s4.477-10,10-10h19.84c5.523,0,10,4.477,10,10
                    S302.622,87.106,297.099,87.106z"/>
            </g>
        </g>
    </symbol>

    <symbol id="newUser" viewBox="0 0 25 25">
        <title>Nuevo usuario</title>
        <path d="M25 4.38208C25 1.96577 23.0342 0 20.6179 0C19.344 0 18.1957 0.546777 17.3943 1.41753C15.8022 0.698584 14.1023 0.333301 12.3333 0.333301C5.53272 0.333301 0 5.86606 0 12.6667C0 19.4672 5.53272 25 12.3333 25C19.134 25 24.6667 19.4673 24.6667 12.6667C24.6667 10.8977 24.3015 9.19775 23.5824 7.60566C24.4532 6.80425 25 5.65601 25 4.38208ZM20.6179 1.23335C22.3542 1.23335 23.7667 2.6459 23.7667 4.38213C23.7667 6.11836 22.3542 7.53091 20.6179 7.53091C18.8817 7.53091 17.4691 6.11836 17.4691 4.38213C17.4692 2.64585 18.8817 1.23335 20.6179 1.23335ZM12.3333 23.7667C6.21279 23.7667 1.23335 18.7872 1.23335 12.6667C1.23335 6.54609 6.21279 1.56665 12.3333 1.56665C13.8508 1.56665 15.3115 1.86431 16.6851 2.45195C16.3979 3.03472 16.2359 3.68975 16.2359 4.38213C16.2359 6.79844 18.2017 8.76421 20.618 8.76421C21.3104 8.76421 21.9654 8.60215 22.5481 8.31504C23.1357 9.68848 23.4334 11.1492 23.4334 12.6667C23.4334 18.7872 18.4539 23.7667 12.3333 23.7667Z"/>

        <path d="M22.2546 3.76543H21.2347V2.74546C21.2347 2.40489 20.9586 2.12881 20.618 2.12881C20.2774 2.12881 20.0014 2.40489 20.0014 2.74546V3.76543H18.9814C18.6408 3.76543 18.3647 4.04151 18.3647 4.38208C18.3647 4.72261 18.6408 4.99873 18.9814 4.99873H20.0014V6.0187C20.0014 6.35928 20.2774 6.63535 20.618 6.63535C20.9586 6.63535 21.2347 6.35928 21.2347 6.0187V4.99873H22.2546C22.5952 4.99873 22.8713 4.72266 22.8713 4.38208C22.8713 4.04151 22.5952 3.76543 22.2546 3.76543Z"/>
        
        <path d="M16.1224 14.8738C16.1086 14.8728 14.6019 14.9257 14.1699 13.3458C14.4516 13.1307 14.7126 12.8651 14.9451 12.5503C15.4442 11.8745 15.7698 11.0321 15.8933 10.1212C15.9286 10.0793 15.9583 10.0314 15.9807 9.97819C16.1945 9.46896 16.303 8.92531 16.303 8.36242C16.303 6.19503 14.6619 4.4317 12.6448 4.4317C12.1269 4.4317 11.6243 4.54825 11.1491 4.77833C10.9739 4.79406 10.8021 4.82599 10.6369 4.87379C8.94668 5.36212 7.98989 7.39992 8.5041 9.41637C8.55571 9.61872 8.68066 10.0065 8.78218 10.1469C8.97441 11.5197 9.61709 12.6667 10.4984 13.3403C10.0592 14.9464 8.55879 14.8729 8.54512 14.8738C7.08823 14.9207 5.91724 16.1196 5.91724 17.5877V19.3614C5.91724 20.0275 6.45918 20.5695 7.12529 20.5695H17.5415C18.2076 20.5695 18.7496 20.0275 18.7496 19.3614V17.5877C18.7494 16.1197 17.5789 14.921 16.1224 14.8738ZM10.945 5.9402C11.0652 5.90543 11.1927 5.88483 11.3237 5.87882C11.4051 5.87511 11.4847 5.85358 11.5568 5.81574C11.9029 5.63395 12.2689 5.54176 12.6447 5.54176C13.9754 5.54176 15.0705 6.67692 15.1828 8.11833C14.906 7.94416 14.5788 7.84298 14.2283 7.84298H11.7167C11.6079 7.84298 11.5045 7.8089 11.4181 7.7443C11.344 7.68898 11.2868 7.61481 11.2527 7.52985C11.1502 7.27404 10.8969 7.11378 10.6213 7.13131C10.3451 7.14884 10.1127 7.34059 10.0428 7.60861C9.93735 8.01388 9.75112 8.3945 9.50059 8.72824C9.33433 7.43493 9.93193 6.23287 10.945 5.9402ZM9.8771 9.96217C10.2683 9.59679 10.5905 9.16222 10.8234 8.68283C11.0882 8.85988 11.3952 8.95299 11.7167 8.95299H14.2283C14.494 8.95299 14.7245 9.10465 14.8391 9.3257C14.8297 10.7816 14.2117 12.0325 13.3324 12.5812C13.3045 12.5946 12.9034 12.8784 12.3356 12.8784C11.1463 12.8784 10.1008 11.6169 9.8771 9.96217ZM13.9741 15.141C13.502 15.4844 12.9291 15.6744 12.3356 15.6744C11.7412 15.6744 11.1674 15.4838 10.6949 15.1394C11.0615 14.7925 11.3433 14.3559 11.504 13.864C11.7713 13.9453 12.0498 13.9883 12.3356 13.9883C12.6187 13.9883 12.8957 13.9458 13.1634 13.8657C13.3247 14.3578 13.607 14.7943 13.9741 15.141ZM17.6394 19.3613C17.6394 19.4154 17.5954 19.4593 17.5414 19.4593H7.12515C7.07105 19.4593 7.0271 19.4154 7.0271 19.3613V17.5875C7.0271 16.7019 7.74756 15.9815 8.63315 15.9815C8.6481 15.9815 9.17202 15.9727 9.71084 15.7672C10.4245 16.4179 11.3603 16.7844 12.3357 16.7844C13.3104 16.7844 14.2458 16.4182 14.9594 15.7682C15.5089 15.992 16.0185 15.9815 16.0334 15.9815C16.919 15.9815 17.6395 16.702 17.6395 17.5876V19.3613H17.6394Z"/>
    </symbol>
</svg>