<svg xmlns="http://www.w3.org/2000/svg">

    <!-- Aquí estarán nuestros íconos -->
 
    <symbol id="home" viewBox="0 0 512 512" style="enable-background:new 0 0 512 512;">
        <title>Inicio</title>
        <g>
            <g>
                <path d="M506.555,208.064L263.859,30.367c-4.68-3.426-11.038-3.426-15.716,0L5.445,208.064
                    c-5.928,4.341-7.216,12.665-2.875,18.593s12.666,7.214,18.593,2.875L256,57.588l234.837,171.943c2.368,1.735,5.12,2.57,7.848,2.57
                    c4.096,0,8.138-1.885,10.744-5.445C513.771,220.729,512.483,212.405,506.555,208.064z"/>
            </g>
        </g>
        <g>
            <g>
                <path d="M442.246,232.543c-7.346,0-13.303,5.956-13.303,13.303v211.749H322.521V342.009c0-36.68-29.842-66.52-66.52-66.52
                    s-66.52,29.842-66.52,66.52v115.587H83.058V245.847c0-7.347-5.957-13.303-13.303-13.303s-13.303,5.956-13.303,13.303v225.053
                    c0,7.347,5.957,13.303,13.303,13.303h133.029c6.996,0,12.721-5.405,13.251-12.267c0.032-0.311,0.052-0.651,0.052-1.036v-128.89
                    c0-22.009,17.905-39.914,39.914-39.914s39.914,17.906,39.914,39.914v128.89c0,0.383,0.02,0.717,0.052,1.024
                    c0.524,6.867,6.251,12.279,13.251,12.279h133.029c7.347,0,13.303-5.956,13.303-13.303V245.847
                    C455.549,238.499,449.593,232.543,442.246,232.543z"/>
            </g>
        </g>

    </symbol>

    <symbol id="users" viewBox="0 0 512.001 512.001" style="enable-background:new 0 0 512.001 512.001;" xml:space="preserve">
        <title>Control de usuarios</title>
        <g>
            <g>
                <path d="M270.948,302.936c-10.562-14.943-27.525-24.074-45.713-24.765c-0.385-0.043-0.775-0.067-1.171-0.067
                    c-23.135,0-42.252-17.484-44.859-39.93c6.661-4.851,12.807-11.007,18.254-18.381c11.015-14.913,18.165-33.547,20.816-53.698
                    c0.812-0.883,1.496-1.911,1.987-3.081c4.664-11.106,7.029-22.963,7.029-35.242c0-47.221-35.702-85.637-79.584-85.637
                    c-11.349,0-22.36,2.578-32.768,7.665c-3.891,0.328-7.704,1.028-11.365,2.088c-36.686,10.599-57.421,54.957-46.22,98.88
                    c1.127,4.419,2.56,8.765,4.262,12.916c0.464,1.134,1.114,2.13,1.88,3c4.225,31.022,18.908,56.833,38.989,71.434
                    c-2.581,22.474-21.712,39.988-44.867,39.988c-0.356,0-0.708,0.019-1.056,0.053C25.185,279.268,0,305.121,0,336.763v63.14
                    c0,5.891,4.775,10.666,10.666,10.666h188.451c5.89,0,10.666-4.775,10.666-10.666s-4.776-10.666-10.666-10.666H21.331v-52.475
                    c0-20.585,16.746-37.33,37.33-37.33c0.356,0,0.708-0.019,1.056-0.053c7.683-0.24,15.04-1.786,21.858-4.429l50.497,72.883
                    c1.992,2.875,5.268,4.592,8.767,4.592c3.499,0,6.775-1.716,8.767-4.592l50.498-72.883c6.819,2.643,14.175,4.189,21.858,4.429
                    c0.348,0.034,0.7,0.053,1.056,0.053c12.105,0,23.511,5.912,30.51,15.815c2.078,2.94,5.372,4.51,8.719,4.51
                    c2.128,0,4.277-0.636,6.147-1.957C273.205,314.402,274.347,307.746,270.948,302.936z M109.492,72.377
                    c2.798-0.808,5.757-1.288,8.796-1.425c1.566-0.07,3.094-0.484,4.482-1.213c7.926-4.164,16.314-6.276,24.933-6.276
                    c31.47,0,57.174,27.694,58.204,62.162c-6.414-4.85-14.393-7.733-23.035-7.733h-55.779c-2.778,0-5.416-0.872-7.625-2.521
                    c-1.891-1.411-3.351-3.305-4.224-5.482c-2.015-5.014-7-8.146-12.383-7.806c-5.416,0.347-9.973,4.111-11.338,9.361
                    c-2.721,10.453-7.801,20.188-14.708,28.455C71.283,108.973,85.213,79.392,109.492,72.377z M84.479,162.705
                    c9.316-8.54,16.855-18.89,22.119-30.32c0.036,0.027,0.073,0.054,0.11,0.081c5.925,4.422,12.973,6.758,20.384,6.758h55.779
                    c6.7,0,12.487,3.92,15.234,9.577c-0.071,22.157-6.384,42.854-17.806,58.315c-10.771,14.58-24.785,22.61-39.462,22.61
                    c-13.583,0-26.807-7.017-37.236-19.757C93.483,197.61,86.788,180.974,84.479,162.705z M140.838,343.031l-40.817-58.912
                    c10.95-9.086,18.932-21.616,22.307-35.908c5.943,1.86,12.141,2.848,18.509,2.848c6.334,0,12.537-0.961,18.52-2.817
                    c3.379,14.278,11.358,26.796,22.3,35.876L140.838,343.031z"/>
            </g>
        </g>
        <g>
            <g>
                <path d="M455.441,337.455c-0.348-0.034-0.7-0.053-1.056-0.053c-23.167,0-42.305-17.531-44.871-40.023
                    c13.062-9.512,23.832-23.774,30.931-41.119c1.016,3.324,3.617,6.008,7.039,7.069c1.04,0.322,2.104,0.479,3.157,0.479
                    c3.232,0,6.36-1.473,8.417-4.114c14.881-19.112,22.616-43.986,21.784-70.041c-0.818-25.56-9.803-49.555-25.303-67.563
                    c-15.869-18.438-36.819-28.699-59.012-28.911c-1.177-0.048-4.104,0.053-4.577,0.082c-11.402-5.172-23.45-7.588-35.858-7.194
                    c-25.625,0.819-49.196,13.591-66.369,35.963c-16.688,21.741-25.355,50.098-24.404,79.85c0.161,5.041,0.559,9.683,1.203,14.103
                    c1.737,12.679,5.23,24.822,10.381,36.091c1.639,3.587,5.124,5.977,9.06,6.213c3.923,0.237,7.681-1.718,9.739-5.083
                    c0.858-1.403,1.961-3.152,3.178-4.866c4.755,14.445,12.024,27.423,21.253,37.669c3.937,4.371,8.189,8.173,12.667,11.416
                    c-2.586,22.469-21.715,39.977-44.866,39.977c-0.356,0-0.708,0.019-1.056,0.053c-31.374,1.112-56.558,26.967-56.558,58.607v63.14
                    c0,5.891,4.776,10.666,10.666,10.666h260.346c5.89,0,10.666-4.775,10.666-10.666v-63.14
                    C512,364.422,486.815,338.568,455.441,337.455z M290.112,225.625c-1.052-4.108-1.876-8.321-2.467-12.626
                    c-0.54-3.708-0.868-7.568-1.003-11.799c-0.794-24.837,6.31-48.341,20.004-66.18c13.208-17.208,31.01-27.02,50.128-27.631
                    c0.639-0.021,14.387-0.795,28.421,6.277c1.569,0.79,3.377,1.157,5.138,1.107c0.202-0.006,5.677-0.265,5.836-0.263
                    c16.02,0.106,31.362,7.741,43.203,21.497c12.331,14.328,19.487,33.622,20.149,54.329c0.359,11.247-1.221,22.18-4.567,32.239
                    c-1.008-2.686-2.132-5.331-3.369-7.932c-10.298-21.91-27.633-38.881-48.812-47.788c-2.683-1.128-5.709-1.111-8.378,0.047
                    c-2.67,1.157-4.75,3.355-5.759,6.085c-1.42,3.836-3.14,7.573-5.116,11.106c-5.584,9.986-16.842,15.927-29.361,15.489
                    c-1.879-0.064-3.786-0.067-5.666-0.007c-9.223,0.295-18.217,2.053-26.78,5.242C313.255,208.009,299.041,216.018,290.112,225.625z
                    M316.351,231.43c4.044-2.709,8.347-4.94,12.853-6.643c6.344-2.362,13.063-3.672,19.97-3.893c1.41-0.046,2.838-0.044,4.246,0.005
                    c20.594,0.705,39.217-9.405,48.718-26.396c0.584-1.045,1.152-2.106,1.701-3.177c9.728,5.993,18.043,14.44,24.295,24.692
                    c-0.054,0.316-0.1,0.633-0.126,0.959c-1.636,20.237-8.617,38.809-19.658,52.295c-10.429,12.741-23.653,19.757-37.236,19.757
                    C346.004,289.027,323.666,265.158,316.351,231.43z M352.654,307.492c6.003,1.876,12.194,2.866,18.46,2.866
                    c6.384,0,12.597-0.994,18.555-2.864c4.284,18.163,16.029,33.466,31.818,42.495c-6.159,22.255-26.627,38.258-50.324,38.258
                    c-23.699,0-44.166-16.004-50.324-38.26C336.626,340.96,348.371,325.656,352.654,307.492z M490.669,448.537H251.654v-52.475
                    c0-20.583,16.746-37.33,37.33-37.33c0.356,0,0.708-0.019,1.056-0.053c3.673-0.115,7.274-0.519,10.775-1.209
                    c9.265,30.416,37.613,52.11,70.347,52.11c32.734,0,61.081-21.694,70.348-52.109c3.5,0.69,7.101,1.094,10.773,1.208
                    c0.348,0.034,0.7,0.053,1.056,0.053c20.584,0,37.33,16.746,37.33,37.33V448.537z"/>
            </g>
        </g>
    </symbol>

    <symbol id="evaluador" viewBox="-28 -19 618 618.66574">
        <title>Evaluador</title>
        <path d="m211.265625 264.132812c72.9375 0 132.066406-59.125 132.066406-132.066406 0-72.9375-59.128906-132.066406-132.066406-132.066406s-132.066406 59.128906-132.066406 132.066406c.070312 72.914063 59.15625 131.996094 132.066406 132.066406zm0-239.144531c59.140625 0 107.078125 47.945313 107.078125 107.078125 0 59.140625-47.9375 107.078125-107.078125 107.078125-59.136719 0-107.074219-47.9375-107.074219-107.078125.066406-59.109375 47.964844-107.007812 107.074219-107.078125zm0 0"/><path d="m554.492188 337.976562-107.703126-57.347656c-3.710937-2.023437-8.203124-1.976562-11.871093.121094l-98.582031 53.976562c-36.109376-26.863281-79.34375-40.855468-125.316407-40.855468-57.226562.125-110.328125 22.367187-149.6875 62.847656-39.859375 40.855469-61.726562 96.707031-61.597656 157.304688.019531 6.894531 5.601563 12.476562 12.492187 12.496093l347.597657-.625c16.339843 20.289063 37.347656 36.320313 61.222656 46.730469l14.496094 6.371094c1.574219.703125 3.28125 1.042968 5 1 1.710937-.03125 3.40625-.367188 4.996093-1l16.367188-7.121094c60.136719-25.230469 99.25-84.09375 99.207031-149.3125v-73.46875c.003907-4.640625-2.539062-8.910156-6.621093-11.117188zm-529.394532 163.429688c2.621094-49.105469 21.738282-93.957031 54.226563-127.320312 34.605469-35.609376 81.460937-55.226563 131.816406-55.226563h.375c41.359375 0 80.09375 12.996094 112.203125 37.609375v67.59375c.019531 26.835938 6.714844 53.242188 19.488281 76.839844zm511.027344-78.84375c.023438 55.21875-33.140625 105.039062-84.089844 126.324219h-.125l-11.367187 4.871093-9.5-4.125c-49.96875-21.832031-82.28125-71.160156-82.335938-125.691406v-67.597656l92.332031-50.601562 95.085938 50.726562zm0 0"/><path d="m406.804688 415.941406c-4.484376-5.242187-12.371094-5.855468-17.617188-1.371094-5.242188 4.484376-5.855469 12.371094-1.371094 17.613282l28.359375 33.109375c2.382813 2.769531 5.847657 4.363281 9.496094 4.375 2.863281.023437 5.644531-.945313 7.871094-2.75l65.972656-53.597657c5.347656-4.382812 6.128906-12.269531 1.746094-17.621093-4.378907-5.347657-12.265625-6.128907-17.613281-1.746094l-56.476563 45.980469zm0 0"/>
    </symbol>

    <symbol id="toggle" viewBox="0 0 502 502" style="enable-background:new 0 0 502 502;" fill="#7A8A65">
        <title>Menu</title>
        <g>
            <g>
                <g>
                    <path d="M445.317,143.126H56.683C25.428,143.126,0,117.698,0,86.443C0,55.188,25.428,29.76,56.683,29.76h388.635
                        C476.572,29.76,502,55.188,502,86.443C502,117.698,476.572,143.126,445.317,143.126z M56.683,49.76
                        C36.456,49.76,20,66.216,20,86.443s16.456,36.683,36.683,36.683h388.635c20.227,0,36.683-16.456,36.683-36.683
                        S465.544,49.76,445.317,49.76H56.683z"/>
                </g>
            </g>
            <g>
                <g>
                    <path d="M445.317,307.683H56.683C25.428,307.683,0,282.255,0,251s25.428-56.683,56.683-56.683h388.635
                        C476.572,194.317,502,219.745,502,251S476.572,307.683,445.317,307.683z M56.683,214.317C36.456,214.317,20,230.773,20,251
                        s16.456,36.683,36.683,36.683h388.635C465.544,287.683,482,271.227,482,251s-16.456-36.683-36.683-36.683H56.683z"/>
                </g>
            </g>
            <g>
                <g>
                    <path d="M445.317,472.24H56.683C25.428,472.24,0,446.812,0,415.557c0-31.255,25.428-56.683,56.683-56.683h388.635
                        c31.255,0,56.683,25.428,56.683,56.683C502,446.812,476.572,472.24,445.317,472.24z M56.683,378.874
                        C36.456,378.874,20,395.33,20,415.557s16.456,36.683,36.683,36.683h388.635c20.227,0,36.683-16.456,36.683-36.683
                        s-16.456-36.683-36.683-36.683H56.683z"/>
                </g>
            </g>
            <g>
                <path d="M230.576,87.106H57.85c-5.523,0-10-4.477-10-10s4.477-10,10-10h172.726c5.523,0,10,4.477,10,10
                    S236.099,87.106,230.576,87.106z"/>
            </g>
            <g>
                <path d="M297.099,87.106h-19.84c-5.523,0-10-4.477-10-10s4.477-10,10-10h19.84c5.523,0,10,4.477,10,10
                    S302.622,87.106,297.099,87.106z"/>
            </g>
        </g>
    </symbol>

    <symbol id="newUser" viewBox="0 0 25 25">
        <title>Nuevo usuario</title>
        <path d="M25 4.38208C25 1.96577 23.0342 0 20.6179 0C19.344 0 18.1957 0.546777 17.3943 1.41753C15.8022 0.698584 14.1023 0.333301 12.3333 0.333301C5.53272 0.333301 0 5.86606 0 12.6667C0 19.4672 5.53272 25 12.3333 25C19.134 25 24.6667 19.4673 24.6667 12.6667C24.6667 10.8977 24.3015 9.19775 23.5824 7.60566C24.4532 6.80425 25 5.65601 25 4.38208ZM20.6179 1.23335C22.3542 1.23335 23.7667 2.6459 23.7667 4.38213C23.7667 6.11836 22.3542 7.53091 20.6179 7.53091C18.8817 7.53091 17.4691 6.11836 17.4691 4.38213C17.4692 2.64585 18.8817 1.23335 20.6179 1.23335ZM12.3333 23.7667C6.21279 23.7667 1.23335 18.7872 1.23335 12.6667C1.23335 6.54609 6.21279 1.56665 12.3333 1.56665C13.8508 1.56665 15.3115 1.86431 16.6851 2.45195C16.3979 3.03472 16.2359 3.68975 16.2359 4.38213C16.2359 6.79844 18.2017 8.76421 20.618 8.76421C21.3104 8.76421 21.9654 8.60215 22.5481 8.31504C23.1357 9.68848 23.4334 11.1492 23.4334 12.6667C23.4334 18.7872 18.4539 23.7667 12.3333 23.7667Z"/>

        <path d="M22.2546 3.76543H21.2347V2.74546C21.2347 2.40489 20.9586 2.12881 20.618 2.12881C20.2774 2.12881 20.0014 2.40489 20.0014 2.74546V3.76543H18.9814C18.6408 3.76543 18.3647 4.04151 18.3647 4.38208C18.3647 4.72261 18.6408 4.99873 18.9814 4.99873H20.0014V6.0187C20.0014 6.35928 20.2774 6.63535 20.618 6.63535C20.9586 6.63535 21.2347 6.35928 21.2347 6.0187V4.99873H22.2546C22.5952 4.99873 22.8713 4.72266 22.8713 4.38208C22.8713 4.04151 22.5952 3.76543 22.2546 3.76543Z"/>
        
        <path d="M16.1224 14.8738C16.1086 14.8728 14.6019 14.9257 14.1699 13.3458C14.4516 13.1307 14.7126 12.8651 14.9451 12.5503C15.4442 11.8745 15.7698 11.0321 15.8933 10.1212C15.9286 10.0793 15.9583 10.0314 15.9807 9.97819C16.1945 9.46896 16.303 8.92531 16.303 8.36242C16.303 6.19503 14.6619 4.4317 12.6448 4.4317C12.1269 4.4317 11.6243 4.54825 11.1491 4.77833C10.9739 4.79406 10.8021 4.82599 10.6369 4.87379C8.94668 5.36212 7.98989 7.39992 8.5041 9.41637C8.55571 9.61872 8.68066 10.0065 8.78218 10.1469C8.97441 11.5197 9.61709 12.6667 10.4984 13.3403C10.0592 14.9464 8.55879 14.8729 8.54512 14.8738C7.08823 14.9207 5.91724 16.1196 5.91724 17.5877V19.3614C5.91724 20.0275 6.45918 20.5695 7.12529 20.5695H17.5415C18.2076 20.5695 18.7496 20.0275 18.7496 19.3614V17.5877C18.7494 16.1197 17.5789 14.921 16.1224 14.8738ZM10.945 5.9402C11.0652 5.90543 11.1927 5.88483 11.3237 5.87882C11.4051 5.87511 11.4847 5.85358 11.5568 5.81574C11.9029 5.63395 12.2689 5.54176 12.6447 5.54176C13.9754 5.54176 15.0705 6.67692 15.1828 8.11833C14.906 7.94416 14.5788 7.84298 14.2283 7.84298H11.7167C11.6079 7.84298 11.5045 7.8089 11.4181 7.7443C11.344 7.68898 11.2868 7.61481 11.2527 7.52985C11.1502 7.27404 10.8969 7.11378 10.6213 7.13131C10.3451 7.14884 10.1127 7.34059 10.0428 7.60861C9.93735 8.01388 9.75112 8.3945 9.50059 8.72824C9.33433 7.43493 9.93193 6.23287 10.945 5.9402ZM9.8771 9.96217C10.2683 9.59679 10.5905 9.16222 10.8234 8.68283C11.0882 8.85988 11.3952 8.95299 11.7167 8.95299H14.2283C14.494 8.95299 14.7245 9.10465 14.8391 9.3257C14.8297 10.7816 14.2117 12.0325 13.3324 12.5812C13.3045 12.5946 12.9034 12.8784 12.3356 12.8784C11.1463 12.8784 10.1008 11.6169 9.8771 9.96217ZM13.9741 15.141C13.502 15.4844 12.9291 15.6744 12.3356 15.6744C11.7412 15.6744 11.1674 15.4838 10.6949 15.1394C11.0615 14.7925 11.3433 14.3559 11.504 13.864C11.7713 13.9453 12.0498 13.9883 12.3356 13.9883C12.6187 13.9883 12.8957 13.9458 13.1634 13.8657C13.3247 14.3578 13.607 14.7943 13.9741 15.141ZM17.6394 19.3613C17.6394 19.4154 17.5954 19.4593 17.5414 19.4593H7.12515C7.07105 19.4593 7.0271 19.4154 7.0271 19.3613V17.5875C7.0271 16.7019 7.74756 15.9815 8.63315 15.9815C8.6481 15.9815 9.17202 15.9727 9.71084 15.7672C10.4245 16.4179 11.3603 16.7844 12.3357 16.7844C13.3104 16.7844 14.2458 16.4182 14.9594 15.7682C15.5089 15.992 16.0185 15.9815 16.0334 15.9815C16.919 15.9815 17.6395 16.702 17.6395 17.5876V19.3613H17.6394Z"/>
    </symbol>

    <symbol id="shoppingCart" viewBox="0 -11 414.00226 414">
        <title>Carrito</title>
        <path d="m202.480469 352.132812c0-21.800781-17.671875-39.472656-39.46875-39.472656-21.800781 0-39.472657 17.671875-39.472657 39.46875 0 21.800782 17.671876 39.472656 39.472657 39.472656 21.785156-.023437 39.445312-17.679687 39.46875-39.46875zm-64.941407 0c0-14.070312 11.402344-25.472656 25.472657-25.472656 14.066406 0 25.46875 11.402344 25.46875 25.46875 0 14.070313-11.402344 25.472656-25.46875 25.472656-14.0625-.015624-25.457031-11.410156-25.472657-25.46875zm0 0"/><path d="m309.167969 391.601562c21.800781.003907 39.472656-17.667968 39.472656-39.46875.003906-21.800781-17.667969-39.472656-39.46875-39.472656s-39.472656 17.671875-39.472656 39.472656c.027343 21.785157 17.679687 39.441407 39.46875 39.46875zm0-64.941406c14.066406 0 25.472656 11.402344 25.472656 25.46875.003906 14.066406-11.402344 25.472656-25.46875 25.472656s-25.472656-11.402343-25.472656-25.46875c.015625-14.058593 11.410156-25.453124 25.46875-25.472656zm0 0"/><path d="m7 14h42.699219c14.050781-.054688 26.03125 10.175781 28.171875 24.066406l33.800781 213.511719c3.191406 20.703125 21.050781 35.957031 42 35.875h208.929687c3.863282 0 7-3.136719 7-7 0-3.867187-3.136718-7-7-7h-208.929687c-14.050781.054687-26.03125-10.179687-28.171875-24.066406l-5.746094-36.300781h213.980469c18.117187-.007813 34.242187-11.484376 40.179687-28.597657l39.699219-114.578125c.746094-2.140625.40625-4.507812-.90625-6.355468-1.316406-1.84375-3.441406-2.941407-5.707031-2.941407h-311.386719l-3.914062-24.738281c-3.191407-20.703125-21.050781-35.9570312-42-35.875h-42.699219c-3.867188 0-7 3.136719-7 7 0 3.867188 3.132812 7 7 7zm390.164062 60.617188-36.476562 105.285156c-3.984375 11.480468-14.800781 19.179687-26.953125 19.183594h-216.199219l-19.707031-124.472657zm0 0"/>
    </symbol>

    <symbol id="exito" viewBox="0 0 512 512" style="enable-background:new 0 0 512 512;">
        <title>Exito</title>
        <g>
            <g>
                <path d="M449.716,239.842c-0.543-7.535-7.082-13.191-14.628-12.661c-7.536,0.543-13.204,7.092-12.662,14.628
                    c0.337,4.655,0.506,9.431,0.506,14.191c0,109.061-88.726,197.787-197.786,197.787C116.086,453.787,27.36,365.06,27.36,256
                    S116.086,58.214,225.147,58.214c43.191,0,84.21,13.668,118.62,39.525c6.041,4.538,14.615,3.321,19.154-2.718
                    c4.54-6.04,3.323-14.616-2.717-19.154c-39.189-29.447-85.891-45.012-135.058-45.012C101.001,30.854,0,131.855,0,256
                    s101.001,225.145,225.147,225.145S450.292,380.146,450.292,256C450.292,250.586,450.097,245.15,449.716,239.842z"/>
            </g>
        </g>
        <g>
            <g>
                <path d="M496.395,61.77c-20.808-20.807-54.666-20.807-75.474,0l-197.11,197.108l-69.874-69.875
                    c-20.808-20.807-54.666-20.807-75.474,0c-20.808,20.808-20.808,54.666,0,75.474l120.341,120.341
                    c6.895,6.895,15.951,10.342,25.007,10.342c9.057,0,18.113-3.447,25.008-10.342l247.576-247.576
                    C517.201,116.435,517.201,82.579,496.395,61.77z M477.049,117.897L229.472,365.475c-3.12,3.12-8.2,3.12-11.32,0L97.811,245.133
                    c-10.141-10.141-10.141-26.64,0-36.781c5.07-5.072,11.729-7.606,18.39-7.606s13.321,2.535,18.39,7.606l71.882,71.882
                    c4.632,4.631,10.791,7.181,17.339,7.181c6.551,0,12.71-2.551,17.341-7.182L440.268,81.116c10.138-10.141,26.64-10.141,36.781,0
                    C487.189,91.257,487.189,107.756,477.049,117.897z"/>
            </g>
        </g>
    </symbol>

    <symbol id="info" viewBox="0 0 512.001 512.001" style="enable-background:new 0 0 512.001 512.001;">
        <title>Info</title>
       <g>
            <g>
                <path d="M313.365,107.393c-9.915-11.15-25.377-17.545-42.422-17.545c-30.441,0-57.651,20.784-60.659,46.36
                    c-1.349,11.698,2.281,23.047,10.221,31.955c9.756,10.946,25.08,17.223,42.048,17.223c31.23,0,58.04-20.365,61.036-46.333
                    C324.939,127.569,321.309,116.326,313.365,107.393z M299.176,136.207c-1.537,13.335-18.31,24.6-36.625,24.6
                    c-9.818,0-18.678-3.363-23.699-8.998c-3.307-3.71-4.703-8.011-4.156-12.758c1.543-13.118,18.48-24.626,36.246-24.626
                    c9.886,0,18.879,3.477,24.058,9.299C297.274,126.281,299.846,130.518,299.176,136.207z"/>
            </g>
        </g>
        <g>
            <g>
                <path d="M301.752,369.483c-3.072-2.061-10.262-6.883-4.458-40.363c0.149-0.73,0.732-3.429,1.637-7.623
                    c2.061-9.557,5.897-27.344,10.066-47.179c0.01-0.044,0.02-0.09,0.028-0.134c4.256-21.437,0.887-40.19-9.737-54.233
                    c-9.591-12.678-24.776-20.45-42.754-21.882c-26.586-2.127-54.398,13.739-62.918,29.357c-3.939,6.92-2.053,12.54-0.568,15.289
                    c1.84,3.4,4.524,5.306,6.485,6.697c3.021,2.144,10.093,7.163,3.377,40.573c-0.628,3.056-9.999,50.701-11.238,57.465
                    c-0.009,0.045-0.016,0.091-0.025,0.136c-3.692,21.54-0.041,40.365,11.152,53.959c18.024,21.89,45.458,20.839,46.532,20.839
                    c25.569-0.001,51.128-15.882,58.91-31.079c3.757-7.021,1.727-12.589,0.167-15.298
                    C306.483,372.657,303.748,370.822,301.752,369.483z M284.926,269.336c-4.149,19.742-7.969,37.457-10.023,46.979
                    c-1.397,6.474-1.679,7.789-1.779,8.328c-0.007,0.043-0.016,0.087-0.023,0.132c-6.24,35.864,0.075,51.56,9.013,60.341
                    c-2.442,2.179-5.787,4.532-9.928,6.668c-8.144,4.202-17.165,6.375-24.762,5.974c-11.067-0.591-19.858-4.584-25.418-11.549
                    c-6.475-8.108-8.6-20.003-6.146-34.399c1.336-7.279,10.72-54.936,11.114-56.832c0.007-0.042,0.016-0.082,0.025-0.124
                    c7.178-35.688,1.274-51.544-7.43-60.556c2.498-2.114,5.905-4.379,10.1-6.405c8.251-3.985,17.332-5.924,24.911-5.322
                    c11.048,0.88,19.729,5.102,25.106,12.21C285.947,243.056,287.76,255.005,284.926,269.336z"/>
            </g>
        </g>
        <g>
            <g>
                <path d="M459.614,394.961c33.831-40.598,52.388-90.748,52.388-141.964c0-62.775-26.778-121.727-75.397-165.998
                    c-48.299-43.977-112.438-68.197-180.603-68.197S123.696,43.022,75.397,87C26.776,131.269,0,190.223,0,252.998
                    s26.776,121.729,75.396,165.998c48.299,43.978,112.438,68.197,180.603,68.197c42.625,0,84.634-9.73,121.869-28.187l89.22,33.412
                    c1.402,0.525,2.86,0.78,4.307,0.78c3.039,0,6.028-1.127,8.339-3.259c3.409-3.147,4.755-7.946,3.48-12.407L459.614,394.961z
                    M381.425,434.094c-3.269-1.225-6.904-1-10.001,0.616c-34.94,18.256-74.853,27.906-115.424,27.906
                    c-127.606,0-231.422-94.033-231.422-209.617S128.393,43.379,255.999,43.379s231.423,94.034,231.423,209.617
                    c0,48.095-17.515,93.34-50.652,130.846c-2.776,3.141-3.759,7.483-2.606,11.513l18.72,65.498L381.425,434.094z"/>
            </g>
        </g>
    </symbol>

    <symbol id="wifi" viewBox="0 0 58 55">
        <title>Wireless</title>
        <g id="Page-1" fill="none" fill-rule="evenodd">
        <g id="029---Secure-Connection" fill-rule="nonzero">
        <g fill="#ff5364"><circle id="Oval" cx="24" cy="33" r="5"/>
        <path id="Shape" d="m33.192 25.808c-.5303896-.0001133-1.0390145-.2109013-1.414-.586-4.2989198-4.2878198-11.2570802-4.2878198-15.556 0-.5021489.5199132-1.2457558.7284252-1.9450146.5453943-.6992589-.1830309-1.2453488-.7291208-1.4283797-1.4283797-.1830309-.6992588.0254811-1.4428657.5453943-1.9450146 5.861149-5.8487936 15.350851-5.8487936 21.212 0 .5718158.5719885.7428438 1.4320732.433356 2.1793091-.3094879.7472359-1.0385642 1.2345182-1.847356 1.2346909z"/><path id="Shape" d="m39.557 19.444c-.530609.0009915-1.039641-.2099652-1.414-.586-7.8163871-7.7978578-20.4696129-7.7978578-28.286 0-.50214894.5199132-1.24575578.7284252-1.94501465.5453943-.69925886-.1830309-1.24534878-.7291208-1.42837966-1.4283797-.18303088-.6992588.02548114-1.4428657.54539431-1.9450146 9.3786161-9.35883185 24.5633839-9.35883185 33.942 0 .5718158.5719885.7428438 1.4320732.433356 2.1793091-.3094879.7472359-1.0385642 1.2345182-1.847356 1.2346909z"/><path id="Shape" d="m45.993 13.08c-.5317755.0009491-1.042035-.2099197-1.418-.586-11.3788531-11.32554789-29.7711469-11.32554789-41.15 0-.78120678.7834159-2.04958407.7852067-2.83299998.004-.78341591-.7812068-.78520678-2.0495841-.00400002-2.833 12.9481571-12.88640024 33.8758429-12.88640024 46.824 0 .5731807.5725371.744349 1.434303.4334861 2.1824333-.3108629.7481304-1.0423443 1.2348275-1.8524861 1.2325667z"/></g>
        <path id="Shape" d="m46.326 54.942c10.446-3.882 11.587-15.961 11.674-20.034.0290808-.304441-.0755055-.6065025-.2866122-.8277807-.2111066-.2212781-.5079161-.3399523-.8133878-.3252193-3.9469461.617936-7.8903368-1.1308142-10.082-4.471-.1686512-.2860269-.4759539-.4615758-.808-.4615758s-.6393488.1755489-.808.4615758c-2.193266 3.3438481-6.1417194 5.0931084-10.092 4.471-.3054717-.014733-.6022812.1039412-.8133878.3252193-.2111067.2212782-.315693.5233397-.2866122.8277807.082 4.073 1.223 16.152 11.669 20.034.2090086.0757872.4379914.0757872.647 0z" fill="#4fba6f"/>
        <path id="Shape" d="m45 48c-.2651948-.0000566-.5195073-.1054506-.707-.293l-3-3c-.3789722-.3923789-.3735524-1.0160848.0121814-1.4018186s1.0094397-.3911536 1.4018186-.0121814l2.138 2.137 5.323-7.985c.1982824-.297245.5400812-.4661283.8966441-.4430332s.6737195.23466.832.555c.1582805.3203401.1336383.7007882-.0646441.9980332l-6 9c-.1648955.250626-.4336016.4139788-.732.445-.0333039.0019812-.0666961.0019812-.1 0z" fill="#fff"/>
        </g>
        </g>
       
    </symbol>

    <symbol id="wifiF" viewBox="0 0 512 512" fill="none">
        <title>Wireless</title>
        <g clip-path="url(#clip0)">
            <path d="M211.862 348.69C236.239 348.69 256 328.928 256 304.552C256 280.175 236.239 260.414 211.862 260.414C187.485 260.414 167.724 280.175 167.724 304.552C167.724 328.928 187.485 348.69 211.862 348.69Z" fill="#3A3A3A"/>
            <path d="M293.005 241.064C288.323 241.063 283.833 239.202 280.523 235.891C242.574 198.04 181.15 198.04 143.201 235.891C138.768 240.48 132.204 242.321 126.031 240.705C119.859 239.09 115.038 234.269 113.422 228.096C111.806 221.923 113.647 215.359 118.237 210.926C169.976 159.296 253.748 159.296 305.487 210.926C310.535 215.976 312.045 223.568 309.313 230.164C306.581 236.761 300.145 241.062 293.005 241.064V241.064Z" fill="#3A3A3A"/>
            <path d="M349.193 184.885C344.509 184.894 340.015 183.031 336.711 179.712C267.711 110.876 156.013 110.876 87.0135 179.712C82.5808 184.302 76.0165 186.142 69.8437 184.527C63.671 182.911 58.8503 178.09 57.2346 171.917C55.6189 165.745 57.4595 159.18 62.0491 154.748C144.84 72.1317 278.885 72.1317 361.675 154.748C366.723 159.797 368.233 167.389 365.501 173.986C362.768 180.582 356.333 184.883 349.193 184.885V184.885Z" fill="#3A3A3A"/>
            <path d="M406.007 128.706C401.313 128.715 396.809 126.853 393.49 123.533C293.042 23.556 130.682 23.556 30.2345 123.533C23.3383 130.449 12.1416 130.465 5.22594 123.569C-1.68973 116.672 -1.70554 105.476 5.19063 98.56C119.492 -15.1958 304.233 -15.1958 418.534 98.56C423.593 103.614 425.104 111.221 422.36 117.826C419.616 124.43 413.159 128.726 406.007 128.706V128.706Z" fill="#3A3A3A"/>
            <path d="M408.947 498.247C501.16 463.978 511.232 357.35 512 321.395C512.257 318.707 511.333 316.041 509.47 314.087C507.606 312.134 504.986 311.086 502.29 311.217C467.448 316.671 432.637 301.234 413.29 271.748C411.801 269.223 409.088 267.674 406.157 267.674C403.226 267.674 400.513 269.223 399.025 271.748C379.663 301.267 344.808 316.708 309.937 311.217C307.24 311.086 304.62 312.134 302.756 314.087C300.893 316.041 299.97 318.707 300.226 321.395C300.95 357.35 311.022 463.978 403.235 498.247C405.08 498.916 407.102 498.916 408.947 498.247Z" fill="#888787"/>
            <path d="M397.241 436.965C394.9 436.965 392.655 436.035 391 434.379L364.518 407.896C361.172 404.432 361.22 398.927 364.625 395.522C368.03 392.116 373.536 392.069 377 395.414L395.873 414.279L442.862 343.79C444.613 341.166 447.63 339.676 450.778 339.879C453.925 340.083 456.725 341.951 458.122 344.779C459.519 347.607 459.302 350.965 457.552 353.589L404.586 433.037C403.13 435.25 400.758 436.692 398.124 436.965C397.83 436.983 397.535 436.983 397.241 436.965Z" fill="#EBECED"/>
        </g>
    </symbol>

    <symbol id="deudor" viewBox="0 0 512 512" fill="none">
        <title>Deudor</title>
        <path d="M321.562 105.926H35.3086C15.8086 105.926 0 121.734 0 141.234V158.891H312.797L329.711 118.133C330.84 115.41 330.535 112.305 328.898 109.852C327.262 107.402 324.512 105.926 321.562 105.926Z" fill="#4482C3"/>
        <path d="M223.418 511.996H476.691C496.191 511.996 512 496.184 512 476.684V317.789H290.809L215.27 499.785C214.141 502.508 214.445 505.617 216.082 508.066C217.719 510.52 220.469 511.992 223.418 511.996V511.996Z" fill="#4482C3"/>
        <path d="M0 211.855V370.754C0 390.254 15.8086 406.062 35.3086 406.062H204.305C207.871 406.062 211.086 403.91 212.453 400.617L290.809 211.855H0Z" fill="#4482C3"/>
        <path d="M476.691 211.855H340.676C337.105 211.859 333.891 214.008 332.527 217.305L312.797 264.82H512V247.168C512 227.664 496.191 211.855 476.691 211.855V211.855Z" fill="#4482C3"/>
        <path d="M441.379 450.203C441.379 464.828 429.523 476.684 414.898 476.684C400.27 476.684 388.414 464.828 388.414 450.203C388.414 435.574 400.27 423.719 414.898 423.719C429.523 423.719 441.379 435.574 441.379 450.203Z" fill="#EBECED"/>
        <path d="M450.207 423.719C443.672 423.738 437.379 426.187 432.551 430.594C438.168 435.566 441.383 442.703 441.383 450.203C441.383 457.699 438.168 464.836 432.551 469.809C441.324 477.77 454.316 478.941 464.367 472.672C474.418 466.402 479.086 454.223 475.793 442.844C472.504 431.461 462.055 423.652 450.207 423.719V423.719Z" fill="#E64C3C"/>
        <path d="M44.1367 255.996H114.758C119.633 255.996 123.586 259.945 123.586 264.82V291.305C123.586 296.18 119.633 300.133 114.758 300.133H44.1367C39.2617 300.133 35.3086 296.18 35.3086 291.305V264.82C35.3086 259.945 39.2617 255.996 44.1367 255.996Z" fill="#EBECED"/>
        <path d="M176.551 370.754H35.3086C30.4336 370.754 26.4844 366.801 26.4844 361.926C26.4844 357.051 30.4336 353.098 35.3086 353.098H176.551C181.426 353.098 185.379 357.051 185.379 361.926C185.379 366.801 181.426 370.754 176.551 370.754Z" fill="#EBECED"/>
        <path d="M290.809 317.789H512V264.82H312.797L290.809 317.789Z" fill="#2C3E50"/>
        <path d="M312.797 158.891H0V211.855H290.809L312.797 158.891Z" fill="#2C3E50"/>
        <path d="M333.525 146.05C373.027 146.05 405.05 114.027 405.05 74.525C405.05 35.0228 373.027 3 333.525 3C294.023 3 262 35.0228 262 74.525C262 114.027 294.023 146.05 333.525 146.05Z" fill="#F0C419"/>
        <path d="M357.06 88.76C357.06 77.0046 346.3 67.475 333.026 67.475C329.081 67.4576 325.738 64.8997 325.145 61.4459C324.553 57.992 326.887 54.6701 330.648 53.6158C334.409 52.5616 338.477 54.0888 340.236 57.2156C342.227 60.7187 347.048 62.1291 351.003 60.3658C354.959 58.6025 356.552 54.3332 354.56 50.8301C351.762 45.9134 346.911 42.1549 341.037 40.3508V39.095C341.037 35.1765 337.45 32 333.026 32C328.601 32 325.014 35.1765 325.014 39.095V40.4005C313.986 43.8405 307.368 53.8231 309.349 64.0281C311.33 74.2331 321.334 81.6846 333.026 81.665C336.971 81.6824 340.314 84.2402 340.906 87.6941C341.499 91.148 339.164 94.4699 335.404 95.5242C331.643 96.5784 327.575 95.0512 325.816 91.9244C324.528 89.6583 321.972 88.1728 319.112 88.0276C316.252 87.8824 313.522 89.0995 311.95 91.2204C310.378 93.3412 310.203 96.0438 311.491 98.3099C314.29 103.227 319.14 106.985 325.014 108.789V110.045C325.014 113.963 328.601 117.14 333.026 117.14C337.45 117.14 341.037 113.963 341.037 110.045V108.74C350.606 105.744 357.018 97.7478 357.06 88.76V88.76Z" fill="#E57E25"/>
        <path d="M439.525 146.05C479.027 146.05 511.05 114.475 511.05 75.525C511.05 36.5751 479.027 5 439.525 5C400.023 5 368 36.5751 368 75.525C368 114.475 400.023 146.05 439.525 146.05Z" fill="#C03A2B"/>
        <path d="M448.656 97.0977C448.656 101.973 444.703 105.926 439.828 105.926C434.953 105.926 431 101.973 431 97.0977C431 92.2227 434.953 88.2695 439.828 88.2695C444.703 88.2695 448.656 92.2227 448.656 97.0977Z" fill="#EBECED"/>
        <path d="M439.828 79.4414C434.953 79.4414 431 75.4922 431 70.6133V52.9609C431 48.0859 434.953 44.1328 439.828 44.1328C444.703 44.1328 448.656 48.0859 448.656 52.9609V70.6133C448.656 75.4922 444.703 79.4414 439.828 79.4414Z" fill="#EBECED"/>
       
    </symbol>

    <symbol id="deudorF" viewBox="0 0 512 512" fill="none">
        <title>Deudor</title>
        <path d="M321.562 105.926H35.3086C15.8086 105.926 0 121.734 0 141.234V158.891H312.797L329.711 118.133C330.84 115.41 330.535 112.305 328.898 109.852C327.262 107.402 324.512 105.926 321.562 105.926Z" fill="#3A3A3A"/>
            <path d="M223.418 511.996H476.691C496.191 511.996 512 496.184 512 476.684V317.789H290.809L215.27 499.785C214.141 502.508 214.445 505.617 216.082 508.066C217.719 510.52 220.469 511.992 223.418 511.996V511.996Z" fill="#3A3A3A"/>
            <path d="M0 211.855V370.754C0 390.254 15.8086 406.062 35.3086 406.062H204.305C207.871 406.062 211.086 403.91 212.453 400.617L290.809 211.855H0Z" fill="#3A3A3A"/>
            <path d="M476.691 211.855H340.676C337.105 211.859 333.891 214.008 332.527 217.305L312.797 264.82H512V247.168C512 227.664 496.191 211.855 476.691 211.855V211.855Z" fill="#3A3A3A"/>
            <path d="M441.379 450.203C441.379 464.828 429.523 476.684 414.898 476.684C400.27 476.684 388.414 464.828 388.414 450.203C388.414 435.574 400.27 423.719 414.898 423.719C429.523 423.719 441.379 435.574 441.379 450.203Z" fill="#888787"/>
            <path d="M450.207 423.719C443.672 423.738 437.379 426.187 432.551 430.594C438.168 435.566 441.383 442.703 441.383 450.203C441.383 457.699 438.168 464.836 432.551 469.809C441.324 477.77 454.316 478.941 464.367 472.672C474.418 466.402 479.086 454.223 475.793 442.844C472.504 431.461 462.055 423.652 450.207 423.719V423.719Z" fill="#696969"/>
            <path d="M44.1367 255.996H114.758C119.633 255.996 123.586 259.945 123.586 264.82V291.305C123.586 296.18 119.633 300.133 114.758 300.133H44.1367C39.2617 300.133 35.3086 296.18 35.3086 291.305V264.82C35.3086 259.945 39.2617 255.996 44.1367 255.996Z" fill="#EBECED"/>
            <path d="M176.551 370.754H35.3086C30.4336 370.754 26.4844 366.801 26.4844 361.926C26.4844 357.051 30.4336 353.098 35.3086 353.098H176.551C181.426 353.098 185.379 357.051 185.379 361.926C185.379 366.801 181.426 370.754 176.551 370.754Z" fill="#EBECED"/>
            <path d="M290.809 317.789H512V264.82H312.797L290.809 317.789Z" fill="#888787"/>
            <path d="M312.797 158.891H0V211.855H290.809L312.797 158.891Z" fill="#888787"/>
            <path d="M333.525 146.05C373.027 146.05 405.05 114.027 405.05 74.525C405.05 35.0228 373.027 3 333.525 3C294.023 3 262 35.0228 262 74.525C262 114.027 294.023 146.05 333.525 146.05Z" fill="#888787"/>
            <path d="M357.06 88.76C357.06 77.0046 346.3 67.475 333.026 67.475C329.081 67.4576 325.738 64.8997 325.145 61.4459C324.553 57.992 326.887 54.6701 330.648 53.6158C334.409 52.5616 338.477 54.0888 340.236 57.2156C342.227 60.7187 347.048 62.1291 351.003 60.3658C354.959 58.6025 356.552 54.3332 354.56 50.8301C351.762 45.9134 346.911 42.1549 341.037 40.3508V39.095C341.037 35.1765 337.45 32 333.026 32C328.601 32 325.014 35.1765 325.014 39.095V40.4005C313.986 43.8405 307.368 53.8231 309.349 64.0281C311.33 74.2331 321.334 81.6846 333.026 81.665C336.971 81.6824 340.314 84.2402 340.906 87.6941C341.499 91.148 339.164 94.4699 335.404 95.5242C331.643 96.5784 327.575 95.0512 325.816 91.9244C324.528 89.6583 321.972 88.1728 319.112 88.0276C316.252 87.8824 313.522 89.0995 311.95 91.2204C310.378 93.3412 310.203 96.0438 311.491 98.3099C314.29 103.227 319.14 106.985 325.014 108.789V110.045C325.014 113.963 328.601 117.14 333.026 117.14C337.45 117.14 341.037 113.963 341.037 110.045V108.74C350.606 105.744 357.018 97.7478 357.06 88.76V88.76Z" fill="#EBECED"/>
            <path d="M439.525 146.05C479.027 146.05 511.05 114.475 511.05 75.525C511.05 36.5751 479.027 5 439.525 5C400.023 5 368 36.5751 368 75.525C368 114.475 400.023 146.05 439.525 146.05Z" fill="#696969"/>
            <path d="M448.656 97.0977C448.656 101.973 444.703 105.926 439.828 105.926C434.953 105.926 431 101.973 431 97.0977C431 92.2227 434.953 88.2695 439.828 88.2695C444.703 88.2695 448.656 92.2227 448.656 97.0977Z" fill="#EBECED"/>
            <path d="M439.828 79.4414C434.953 79.4414 431 75.4922 431 70.6133V52.9609C431 48.0859 434.953 44.1328 439.828 44.1328C444.703 44.1328 448.656 48.0859 448.656 52.9609V70.6133C448.656 75.4922 444.703 79.4414 439.828 79.4414Z" fill="#EBECED"/>
    </symbol>

    <symbol id="valido" viewBox="0 0 512 512" style="enable-background:new 0 0 512 512;">
        <title>Valido</title>
       <g>
        <path style="fill:#9FC9D3;" d="M512,163.31v273.655c0.003,9.366-3.717,18.348-10.339,24.971
            c-6.623,6.622-15.605,10.342-24.971,10.339H35.31c-9.366,0.003-18.348-3.717-24.971-10.339C3.717,455.314-0.003,446.331,0,436.966
            V163.31c-0.003-9.366,3.717-18.348,10.339-24.971c6.623-6.623,15.605-10.342,24.971-10.339h158.897"/>
        <path style="fill:#24AE5F;" d="M503.217,108.901c5.331,2.529,8.744,7.887,8.783,13.788v80.926
            c-0.944,73.887-35.928,143.206-94.808,187.852L364.84,432.91c-6.89,5.408-16.583,5.408-23.473,0l-52.352-41.443
            c-58.88-44.647-93.865-113.965-94.808-187.852v-80.926c0.039-5.901,3.452-11.258,8.783-13.788l135.901-65.922
            c8.978-4.34,19.447-4.34,28.424,0L503.217,108.901z"/>
        <ellipse style="fill:#FFFFFF;" cx="353.103" cy="207.801" rx="79.448" ry="79.095"/>
        <path style="fill:#24AE5F;" d="M338.659,241.957c-2.342,0.003-4.588-0.928-6.241-2.586l-14.449-14.448
            c-3.447-3.447-3.447-9.036,0-12.483c3.447-3.447,9.036-3.447,12.483,0l8.207,8.207l37.095-37.095
            c3.452-3.417,9.016-3.404,12.451,0.031c3.435,3.435,3.449,8.999,0.032,12.451l-43.336,43.336
            C343.247,241.029,341.001,241.96,338.659,241.957z"/>
        <g>
            <path style="fill:#3F5C6C;" d="M185.379,392.828H46.138c-4.875,0-8.828-3.952-8.828-8.828s3.952-8.828,8.828-8.828h139.241
                c4.875,0,8.828,3.952,8.828,8.828S190.255,392.828,185.379,392.828z"/>
            <path style="fill:#3F5C6C;" d="M114.759,428.138H46.138c-4.875,0-8.828-3.952-8.828-8.828s3.952-8.828,8.828-8.828h68.621
                c4.875,0,8.828,3.952,8.828,8.828S119.634,428.138,114.759,428.138z"/>
            <path style="fill:#3F5C6C;" d="M171.146,316.357l-30.662-15.114c-3.944-1.925-6.451-5.925-6.465-10.313v-11.861
                c1.029-1.176,1.998-2.403,2.902-3.677c4.13-5.785,7.344-12.171,9.531-18.934c4.015-1.183,6.786-4.85,6.828-9.035v-12.659
                c-0.015-2.691-1.184-5.245-3.21-7.016v-18.301c0,0,3.81-28.482-35.31-28.482c-39.124,0-35.31,28.482-35.31,28.482v18.301
                c-2.026,1.77-3.196,4.325-3.21,7.016v12.659c0.018,3.24,1.693,6.246,4.439,7.965c2.141,8.63,6.099,16.704,11.611,23.681v11.567
                c-0.012,4.24-2.354,8.129-6.096,10.123l-28.637,15.399c-8.236,4.388-13.392,12.95-13.418,22.282v10.25h141.241v-9.63
                C185.349,329.398,179.829,320.594,171.146,316.357z"/>
        </g>
    </g>
    </symbol>

    <symbol id="validoF" viewBox="0 0 474 512" fill="none">
        <title>Valido</title>
        <g clip-path="url(#clip0)">
            <path d="M474 163.31V436.965C474.003 446.331 470.283 455.313 463.661 461.936C457.038 468.558 448.056 472.278 438.69 472.275H-2.69C-12.056 472.278 -21.038 468.558 -27.661 461.936C-34.283 455.314 -38.003 446.331 -38 436.966V163.31C-38.003 153.944 -34.283 144.962 -27.661 138.339C-21.038 131.716 -12.056 127.997 -2.69 128H156.207" fill="#3A3A3A"/>
            <path d="M465.217 108.901C470.548 111.43 473.961 116.788 474 122.689V203.615C473.056 277.502 438.072 346.821 379.192 391.467L326.84 432.91C319.95 438.318 310.257 438.318 303.367 432.91L251.015 391.467C192.135 346.82 157.15 277.502 156.207 203.615V122.689C156.246 116.788 159.659 111.431 164.99 108.901L300.891 42.979C309.869 38.639 320.338 38.639 329.315 42.979L465.217 108.901Z" fill="#888787"/>
            <path d="M315.103 286.896C358.981 286.896 394.551 251.484 394.551 207.801C394.551 164.118 358.981 128.706 315.103 128.706C271.225 128.706 235.655 164.118 235.655 207.801C235.655 251.484 271.225 286.896 315.103 286.896Z" fill="#EBECED"/>
            <path d="M300.659 241.957C298.317 241.96 296.071 241.029 294.418 239.371L279.969 224.923C276.522 221.476 276.522 215.887 279.969 212.44C283.416 208.993 289.005 208.993 292.452 212.44L300.659 220.647L337.754 183.552C341.206 180.135 346.77 180.148 350.205 183.583C353.64 187.018 353.654 192.582 350.237 196.034L306.901 239.37C305.247 241.029 303.001 241.96 300.659 241.957Z" fill="#888787"/>
            <path d="M147.379 392.828H8.138C3.263 392.828 -0.690002 388.876 -0.690002 384C-0.690002 379.124 3.262 375.172 8.138 375.172H147.379C152.254 375.172 156.207 379.124 156.207 384C156.207 388.876 152.255 392.828 147.379 392.828Z" fill="#888787"/>
            <path d="M76.759 428.138H8.138C3.263 428.138 -0.690002 424.186 -0.690002 419.31C-0.690002 414.434 3.262 410.482 8.138 410.482H76.759C81.634 410.482 85.587 414.434 85.587 419.31C85.587 424.186 81.634 428.138 76.759 428.138Z" fill="#888787"/>
            <path d="M133.146 316.357L102.484 301.243C98.54 299.318 96.033 295.318 96.019 290.93V279.069C97.048 277.893 98.017 276.666 98.921 275.392C103.051 269.607 106.265 263.221 108.452 256.458C112.467 255.275 115.238 251.608 115.28 247.423V234.764C115.265 232.073 114.096 229.519 112.07 227.748V209.447C112.07 209.447 115.88 180.965 76.76 180.965C37.636 180.965 41.45 209.447 41.45 209.447V227.748C39.424 229.518 38.254 232.073 38.24 234.764V247.423C38.258 250.663 39.933 253.669 42.679 255.388C44.82 264.018 48.778 272.092 54.29 279.069V290.636C54.278 294.876 51.936 298.765 48.194 300.759L19.557 316.158C11.321 320.546 6.16498 329.108 6.13898 338.44V348.69H147.38V339.06C147.349 329.398 141.829 320.594 133.146 316.357Z" fill="#888787"/>
            </g>
       
    </symbol>

    <symbol id="invalido" viewBox="0 0 512 512" fill="none">
        <title>Invalido</title>
       <g clip-path="url(#clip0)">
        <path d="M512 163.31V436.965C512.003 446.331 508.283 455.313 501.661 461.936C495.038 468.558 486.056 472.278 476.69 472.275H35.31C25.944 472.278 16.962 468.558 10.339 461.936C3.717 455.314 -0.00299819 446.331 1.81311e-06 436.966V163.31C-0.00299819 153.944 3.717 144.962 10.339 138.339C16.962 131.716 25.944 127.997 35.31 128H194.207" fill="#9FC9D3"/>
        <path d="M503.217 108.901C508.548 111.43 511.961 116.788 512 122.689V203.615C511.056 277.502 476.072 346.821 417.192 391.467L364.84 432.91C357.95 438.318 348.257 438.318 341.367 432.91L289.015 391.467C230.135 346.82 195.15 277.502 194.207 203.615V122.689C194.246 116.788 197.659 111.431 202.99 108.901L338.891 42.979C347.869 38.639 358.338 38.639 367.315 42.979L503.217 108.901Z" fill="#D61A24"/>
        <path d="M353.103 286.896C396.981 286.896 432.551 251.484 432.551 207.801C432.551 164.118 396.981 128.706 353.103 128.706C309.225 128.706 273.655 164.118 273.655 207.801C273.655 251.484 309.225 286.896 353.103 286.896Z" fill="white"/>
        <path d="M185.379 392.828H46.138C41.263 392.828 37.31 388.876 37.31 384C37.31 379.124 41.262 375.172 46.138 375.172H185.379C190.254 375.172 194.207 379.124 194.207 384C194.207 388.876 190.255 392.828 185.379 392.828Z" fill="#3F5C6C"/>
        <path d="M114.759 428.138H46.138C41.263 428.138 37.31 424.186 37.31 419.31C37.31 414.434 41.262 410.482 46.138 410.482H114.759C119.634 410.482 123.587 414.434 123.587 419.31C123.587 424.186 119.634 428.138 114.759 428.138Z" fill="#3F5C6C"/>
        <path d="M171.146 316.357L140.484 301.243C136.54 299.318 134.033 295.318 134.019 290.93V279.069C135.048 277.893 136.017 276.666 136.921 275.392C141.051 269.607 144.265 263.221 146.452 256.458C150.467 255.275 153.238 251.608 153.28 247.423V234.764C153.265 232.073 152.096 229.519 150.07 227.748V209.447C150.07 209.447 153.88 180.965 114.76 180.965C75.636 180.965 79.45 209.447 79.45 209.447V227.748C77.424 229.518 76.254 232.073 76.24 234.764V247.423C76.258 250.663 77.933 253.669 80.679 255.388C82.82 264.018 86.778 272.092 92.29 279.069V290.636C92.278 294.876 89.936 298.765 86.194 300.759L57.557 316.158C49.321 320.546 44.165 329.108 44.139 338.44V348.69H185.38V339.06C185.349 329.398 179.829 320.594 171.146 316.357Z" fill="#3F5C6C"/>
        <path d="M381.792 251.564C379.45 251.567 377.204 250.636 375.551 248.978L322.585 196.012C319.191 192.556 319.216 187.011 322.641 183.586C326.066 180.161 331.611 180.136 335.067 183.53L388.032 236.496C390.556 239.021 391.311 242.817 389.945 246.115C388.58 249.412 385.362 251.563 381.792 251.564Z" fill="#D61A24"/>
        <path d="M328.826 251.564C325.256 251.563 322.038 249.412 320.672 246.114C319.306 242.816 320.061 239.02 322.585 236.495L375.551 183.529C379.007 180.135 384.552 180.16 387.977 183.585C391.402 187.01 391.427 192.555 388.033 196.011L335.068 248.977C333.414 250.636 331.168 251.567 328.826 251.564Z" fill="#D61A24"/>
        </g>
    </symbol>

    <symbol id="invalidoF" viewBox="0 0 512 480" fill="none">
        <title>Invalido</title>
       <g clip-path="url(#clip0)">
        <path d="M512 163.31V436.965C512.003 446.331 508.283 455.313 501.661 461.936C495.038 468.558 486.056 472.278 476.69 472.275H35.31C25.944 472.278 16.962 468.558 10.339 461.936C3.717 455.314 -0.00299819 446.331 1.81311e-06 436.966V163.31C-0.00299819 153.944 3.717 144.962 10.339 138.339C16.962 131.716 25.944 127.997 35.31 128H194.207" fill="#3A3A3A"/>
        <path d="M503.217 108.901C508.548 111.43 511.961 116.788 512 122.689V203.615C511.056 277.502 476.072 346.821 417.192 391.467L364.84 432.91C357.95 438.318 348.257 438.318 341.367 432.91L289.015 391.467C230.135 346.82 195.15 277.502 194.207 203.615V122.689C194.246 116.788 197.659 111.431 202.99 108.901L338.891 42.979C347.869 38.639 358.338 38.639 367.315 42.979L503.217 108.901Z" fill="#888787"/>
        <path d="M353.103 286.896C396.981 286.896 432.551 251.484 432.551 207.801C432.551 164.118 396.981 128.706 353.103 128.706C309.225 128.706 273.655 164.118 273.655 207.801C273.655 251.484 309.225 286.896 353.103 286.896Z" fill="#EBECED"/>
        <path d="M185.379 392.828H46.138C41.263 392.828 37.31 388.876 37.31 384C37.31 379.124 41.262 375.172 46.138 375.172H185.379C190.254 375.172 194.207 379.124 194.207 384C194.207 388.876 190.255 392.828 185.379 392.828Z" fill="#888787"/>
        <path d="M114.759 428.138H46.138C41.263 428.138 37.31 424.186 37.31 419.31C37.31 414.434 41.262 410.482 46.138 410.482H114.759C119.634 410.482 123.587 414.434 123.587 419.31C123.587 424.186 119.634 428.138 114.759 428.138Z" fill="#888787"/>
        <path d="M171.146 316.357L140.484 301.243C136.54 299.318 134.033 295.318 134.019 290.93V279.069C135.048 277.893 136.017 276.666 136.921 275.392C141.051 269.607 144.265 263.221 146.452 256.458C150.467 255.275 153.238 251.608 153.28 247.423V234.764C153.265 232.073 152.096 229.519 150.07 227.748V209.447C150.07 209.447 153.88 180.965 114.76 180.965C75.636 180.965 79.45 209.447 79.45 209.447V227.748C77.424 229.518 76.254 232.073 76.24 234.764V247.423C76.258 250.663 77.933 253.669 80.679 255.388C82.82 264.018 86.778 272.092 92.29 279.069V290.636C92.278 294.876 89.936 298.765 86.194 300.759L57.557 316.158C49.321 320.546 44.165 329.108 44.139 338.44V348.69H185.38V339.06C185.349 329.398 179.829 320.594 171.146 316.357Z" fill="#888787"/>
        <path d="M381.792 251.564C379.45 251.567 377.204 250.636 375.551 248.978L322.585 196.012C319.191 192.556 319.216 187.011 322.641 183.586C326.066 180.161 331.611 180.136 335.067 183.53L388.032 236.496C390.556 239.021 391.311 242.817 389.945 246.115C388.58 249.412 385.362 251.563 381.792 251.564Z" fill="#888787"/>
        <path d="M328.826 251.564C325.256 251.563 322.038 249.412 320.672 246.114C319.306 242.816 320.061 239.02 322.585 236.495L375.551 183.529C379.007 180.135 384.552 180.16 387.977 183.585C391.402 187.01 391.427 192.555 388.033 196.011L335.068 248.977C333.414 250.636 331.168 251.567 328.826 251.564Z" fill="#888787"/>
        </g>
    </symbol>

    <symbol id="fibra" viewBox="0 0 267 536" fill="none" >
        <title>Fibra Optica</title>
        <rect x="2" y="229" width="263" height="307" rx="50" fill="#445E6B"/>
        <path d="M265.291 287.5C259.291 391.5 191.088 431 119.291 431C46.2905 423.5 -2.70947 357 3.7905 283.5C3.7905 213.36 103.291 186 135.291 175C223.291 184 265.291 236.5 265.291 287.5Z" fill="#3C5B6B"/>
        <rect x="38.2905" y="171" width="50.5" height="103" fill="#349438"/>
        <circle cx="63.7905" cy="180.5" r="26.5" fill="#58B15C"/>
        <rect x="177.351" y="165" width="51.8" height="103" rx="10" fill="#BF2913"/>
        <circle cx="202.791" cy="174.5" r="26.5" fill="#E64F39"/>
        <rect x="67.2905" y="70" width="130" height="328" rx="52" fill="#9CADB5"/>
        <path d="M65.9316 234.737L23.8569 234.737C18.3341 234.737 13.8569 239.214 13.8569 244.737L13.8569 350.703C13.8569 352.533 14.3586 354.327 15.3076 355.891L34.0051 386.706C34.5257 387.564 35.1726 388.338 35.924 389.004L53.9141 404.938C60.2429 410.544 70.2402 406.254 70.5382 397.805L75.9254 245.089C76.1249 239.432 71.5926 234.737 65.9316 234.737Z" fill="#258ADB"/>
        <circle cx="45.1215" cy="236.387" r="31.5" transform="rotate(-3 45.1215 236.387)" fill="#42A5F5"/>
        <path d="M102.576 292.609L59.2145 290.769C53.5304 290.528 48.7905 295.071 48.7905 300.76L48.7905 396.259C48.7905 400.078 50.9662 403.564 54.3973 405.242L102.262 428.65C109.056 431.973 116.938 426.841 116.648 419.283L112.145 302.216C111.945 297.01 107.781 292.83 102.576 292.609Z" fill="#BF2913"/>
        <circle cx="80.4915" cy="291.552" r="31.5" transform="rotate(-3 80.4915 291.552)" fill="#E64F39"/>
        <path d="M243.09 220.804L200.974 220.804C195.38 220.804 190.874 225.393 190.975 230.986L194.057 400.71C194.185 407.789 201.429 412.496 207.95 409.738L214.994 406.76C216.18 406.258 217.259 405.532 218.17 404.621L232.291 390.5L245.282 373.796C245.95 372.938 246.473 371.976 246.831 370.949L252.533 354.599C252.902 353.541 253.09 352.428 253.09 351.307L253.09 230.804C253.09 225.282 248.613 220.804 243.09 220.804Z" fill="#258ADB"/>
        <circle cx="222.121" cy="235.387" r="31.5" transform="rotate(-3 222.121 235.387)" fill="#42A5F5"/>
        <path d="M206.681 288.251L164.729 290.964C159.755 291.285 155.778 295.22 155.403 300.19L150.366 366.898L150.306 419.907C150.299 426.795 157.094 431.628 163.598 429.361L208.114 413.842C212.049 412.47 214.721 408.801 214.819 404.635L217.324 298.466C217.462 292.597 212.539 287.872 206.681 288.251Z" fill="#3B973E"/>
        <circle cx="187.492" cy="296.552" r="31.5" transform="rotate(-3 187.492 296.552)" fill="#4CAF50"/>
        <path d="M160.29 320.122L107.791 320.122C105.029 320.122 102.791 322.361 102.791 325.122L102.791 378.5L102.791 425.443C102.791 428.205 105.029 430.443 107.791 430.443L160.29 430.443C163.052 430.443 165.29 428.205 165.29 425.443L165.29 325.122C165.29 322.361 163.052 320.122 160.29 320.122Z" fill="#D5AB2E"/>
        <circle cx="134.396" cy="320.105" r="31.5" transform="rotate(-3 134.396 320.105)" fill="#C9B13F"/>
        <ellipse cx="133" cy="105" rx="66" ry="63" fill="#DBDBDF"/>
        <rect x="109" width="42.5" height="125" rx="20" fill="#F0BF4E"/>
    </symbol>

    <symbol id="fibraOp" viewBox="0 0 369 537" fill="none" >
        <title>Fibra Optica</title>
        <rect x="2" y="229" width="263" height="307" rx="50" fill="#445E6B"/>
        <path d="M265.291 287.5C259.291 391.5 191.088 431 119.291 431C46.2905 423.5 -2.70947 357 3.7905 283.5C3.7905 213.36 103.291 186 135.291 175C223.291 184 265.291 236.5 265.291 287.5Z" fill="#3C5B6B"/>
        <rect x="38.2905" y="171" width="50.5" height="103" fill="#349438"/>
        <circle cx="63.7905" cy="180.5" r="26.5" fill="#58B15C"/>
        <rect x="177.351" y="165" width="51.8" height="103" rx="10" fill="#BF2913"/>
        <circle cx="202.791" cy="174.5" r="26.5" fill="#E64F39"/>
        <rect x="67.2905" y="70" width="130" height="328" rx="52" fill="#9CADB5"/>
        <path d="M65.9316 234.737L23.8569 234.737C18.3341 234.737 13.8569 239.214 13.8569 244.737L13.8569 350.703C13.8569 352.533 14.3586 354.327 15.3076 355.891L34.0051 386.706C34.5257 387.564 35.1726 388.338 35.924 389.004L53.9141 404.938C60.2429 410.544 70.2402 406.254 70.5382 397.805L75.9254 245.089C76.1249 239.432 71.5926 234.737 65.9316 234.737Z" fill="#258ADB"/>
        <circle cx="45.1215" cy="236.387" r="31.5" transform="rotate(-3 45.1215 236.387)" fill="#42A5F5"/>
        <path d="M102.576 292.609L59.2144 290.769C53.5303 290.528 48.7904 295.071 48.7905 300.76L48.7905 396.259C48.7905 400.078 50.9661 403.564 54.3972 405.242L102.262 428.65C109.056 431.973 116.938 426.841 116.648 419.283L112.145 302.216C111.945 297.01 107.781 292.83 102.576 292.609Z" fill="#BF2913"/>
        <circle cx="80.4915" cy="291.552" r="31.5" transform="rotate(-3 80.4915 291.552)" fill="#E64F39"/>
        <path d="M243.09 220.804L200.974 220.804C195.38 220.804 190.874 225.393 190.975 230.986L194.057 400.71C194.185 407.789 201.429 412.496 207.95 409.738L214.994 406.76C216.18 406.258 217.259 405.532 218.17 404.621L232.291 390.5L245.282 373.796C245.95 372.938 246.473 371.976 246.831 370.949L252.533 354.599C252.902 353.541 253.09 352.428 253.09 351.307L253.09 230.804C253.09 225.282 248.613 220.804 243.09 220.804Z" fill="#258ADB"/>
        <circle cx="222.121" cy="235.387" r="31.5" transform="rotate(-3 222.121 235.387)" fill="#42A5F5"/>
        <path d="M206.681 288.251L164.729 290.964C159.755 291.285 155.778 295.22 155.403 300.19L150.366 366.898L150.306 419.907C150.299 426.795 157.094 431.628 163.598 429.361L208.114 413.842C212.049 412.47 214.721 408.801 214.819 404.635L217.324 298.466C217.462 292.597 212.539 287.872 206.681 288.251Z" fill="#3B973E"/>
        <circle cx="187.492" cy="296.552" r="31.5" transform="rotate(-3 187.492 296.552)" fill="#4CAF50"/>
        <path d="M160.29 320.122L107.791 320.122C105.029 320.122 102.791 322.361 102.791 325.122L102.791 378.5L102.791 425.443C102.791 428.205 105.029 430.443 107.791 430.443L160.29 430.443C163.052 430.443 165.29 428.205 165.29 425.443L165.29 325.122C165.29 322.361 163.052 320.122 160.29 320.122Z" fill="#D5AB2E"/>
        <circle cx="134.396" cy="320.105" r="31.5" transform="rotate(-3 134.396 320.105)" fill="#C9B13F"/>
        <ellipse cx="133" cy="105" rx="66" ry="63" fill="#DBDBDF"/>
        <rect x="109" width="42.5" height="125" rx="20" fill="#F0BF4E"/>
        <path d="M265.763 535.573C357.976 501.304 368.048 394.676 368.816 358.721C369.073 356.033 368.149 353.367 366.286 351.414C364.422 349.46 361.802 348.413 359.106 348.543C324.264 353.998 289.453 338.56 270.106 309.075C268.617 306.55 265.904 305 262.973 305C260.042 305 257.329 306.55 255.841 309.075C236.479 338.593 201.624 354.034 166.753 348.543C164.056 348.413 161.436 349.46 159.572 351.414C157.709 353.367 156.785 356.033 157.042 358.721C157.766 394.676 167.838 501.304 260.051 535.573C261.896 536.242 263.918 536.242 265.763 535.573Z" fill="#4FBA6F"/>
        <path d="M254.057 474.292C251.716 474.291 249.471 473.361 247.816 471.705L221.334 445.222C217.988 441.759 218.036 436.253 221.441 432.848C224.846 429.443 230.352 429.395 233.816 432.74L252.689 451.605L299.678 381.117C301.429 378.493 304.446 377.002 307.594 377.206C310.741 377.409 313.541 379.277 314.938 382.105C316.335 384.933 316.118 388.291 314.367 390.915L261.402 470.363C259.946 472.576 257.574 474.018 254.94 474.292C254.646 474.309 254.351 474.309 254.057 474.292Z" fill="white"/>
    </symbol>

    <symbol id="fibraOpF" viewBox="0 0 369 537" fill="none" >
        <title>Fibra Optica</title>
        <rect x="2" y="229" width="263" height="307" rx="50" fill="#3A3A3A"/>
        <path d="M265.291 287.5C259.291 391.5 191.088 431 119.291 431C46.2905 423.5 -2.70947 357 3.7905 283.5C3.7905 213.36 103.291 186 135.291 175C223.291 184 265.291 236.5 265.291 287.5Z" fill="#3A3A3A"/>
        <rect x="38.2905" y="171" width="50.5" height="103" fill="#696969"/>
        <circle cx="63.7905" cy="180.5" r="26.5" fill="#888787"/>
        <rect x="177.351" y="165" width="51.8" height="103" rx="10" fill="#696969"/>
        <circle cx="202.791" cy="174.5" r="26.5" fill="#888787"/>
        <rect x="67.2905" y="70" width="130" height="328" rx="52" fill="#9E9E9E"/>
        <path d="M65.9316 234.737L23.8569 234.737C18.3341 234.737 13.8569 239.214 13.8569 244.737L13.8569 350.703C13.8569 352.533 14.3586 354.327 15.3076 355.891L34.0051 386.706C34.5257 387.564 35.1726 388.338 35.924 389.004L53.9141 404.938C60.2429 410.544 70.2402 406.254 70.5382 397.805L75.9254 245.089C76.1249 239.432 71.5926 234.737 65.9316 234.737Z" fill="#696969"/>
        <circle cx="45.1215" cy="236.387" r="31.5" transform="rotate(-3 45.1215 236.387)" fill="#888787"/>
        <path d="M102.576 292.609L59.2144 290.769C53.5303 290.528 48.7904 295.071 48.7905 300.76L48.7905 396.259C48.7905 400.078 50.9661 403.564 54.3972 405.242L102.262 428.65C109.056 431.973 116.938 426.841 116.648 419.283L112.145 302.216C111.945 297.01 107.781 292.83 102.576 292.609Z" fill="#696969"/>
        <circle cx="80.4915" cy="291.552" r="31.5" transform="rotate(-3 80.4915 291.552)" fill="#888787"/>
        <path d="M243.09 220.804L200.974 220.804C195.38 220.804 190.874 225.393 190.975 230.986L194.057 400.71C194.185 407.789 201.429 412.496 207.95 409.738L214.994 406.76C216.18 406.258 217.259 405.532 218.17 404.621L232.291 390.5L245.282 373.796C245.95 372.938 246.473 371.976 246.831 370.949L252.533 354.599C252.902 353.541 253.09 352.428 253.09 351.307L253.09 230.804C253.09 225.282 248.613 220.804 243.09 220.804Z" fill="#696969"/>
        <circle cx="222.121" cy="235.387" r="31.5" transform="rotate(-3 222.121 235.387)" fill="#888787"/>
        <path d="M206.681 288.251L164.729 290.964C159.755 291.285 155.778 295.22 155.403 300.19L150.366 366.898L150.306 419.907C150.299 426.795 157.094 431.628 163.598 429.361L208.114 413.842C212.049 412.47 214.721 408.801 214.819 404.635L217.324 298.466C217.462 292.597 212.539 287.872 206.681 288.251Z" fill="#696969"/>
        <circle cx="187.492" cy="296.552" r="31.5" transform="rotate(-3 187.492 296.552)" fill="#888787"/>
        <path d="M160.29 320.122L107.791 320.122C105.029 320.122 102.791 322.361 102.791 325.122L102.791 378.5L102.791 425.443C102.791 428.205 105.029 430.443 107.791 430.443L160.29 430.443C163.052 430.443 165.29 428.205 165.29 425.443L165.29 325.122C165.29 322.361 163.052 320.122 160.29 320.122Z" fill="#696969"/>
        <circle cx="134.396" cy="320.105" r="31.5" transform="rotate(-3 134.396 320.105)" fill="#888787"/>
        <ellipse cx="133" cy="105" rx="66" ry="63" fill="#DBDBDF"/>
        <rect x="109" width="42.5" height="125" rx="20" fill="#888787"/>
        <path d="M265.763 535.573C357.976 501.304 368.048 394.676 368.816 358.721C369.073 356.033 368.149 353.367 366.286 351.414C364.422 349.46 361.802 348.413 359.106 348.543C324.264 353.998 289.453 338.56 270.106 309.075C268.617 306.55 265.904 305 262.973 305C260.042 305 257.329 306.55 255.841 309.075C236.479 338.593 201.624 354.034 166.753 348.543C164.056 348.413 161.436 349.46 159.572 351.414C157.709 353.367 156.785 356.033 157.042 358.721C157.766 394.676 167.838 501.304 260.051 535.573C261.896 536.242 263.918 536.242 265.763 535.573Z" fill="#888787"/>
        <path d="M254.057 474.292C251.716 474.291 249.471 473.361 247.816 471.705L221.334 445.222C217.988 441.759 218.036 436.253 221.441 432.848C224.846 429.443 230.352 429.395 233.816 432.74L252.689 451.605L299.678 381.117C301.429 378.493 304.446 377.002 307.594 377.206C310.741 377.409 313.541 379.277 314.938 382.105C316.335 384.933 316.118 388.291 314.367 390.915L261.402 470.363C259.946 472.576 257.574 474.018 254.94 474.292C254.646 474.309 254.351 474.309 254.057 474.292Z" fill="#EBECED"/>
    </symbol>

    <symbol id="scan" viewBox="0 0 368 368">
        <title>Sacanner Rut</title>
        <path d="M359.992 255.992C355.576 255.992 351.992 259.568 351.992 263.992V327.992C351.992 341.224 341.224 351.992 327.992 351.992H263.992C259.576 351.992 255.992 355.568 255.992 359.992C255.992 364.416 259.576 367.992 263.992 367.992H327.992C350.048 367.992 367.992 350.048 367.992 327.992V263.992C367.992 259.568 364.408 255.992 359.992 255.992Z" />
        <path d="M327.992 0H264C259.584 0 256 3.576 256 8C256 12.424 259.584 16 264 16H327.992C341.224 16 351.992 26.768 352 40V104C352 108.424 355.584 112 360 112C364.416 112 368 108.424 368 104V40C367.992 17.944 350.04 0 327.992 0Z" />
        <path d="M104 0H40C17.952 0 0 17.944 0 40V104C0 108.424 3.584 112 8 112C12.416 112 16 108.424 16 104V40C16 26.768 26.776 16 40 16H104C108.416 16 112 12.424 112 8C112 3.576 108.416 0 104 0Z" />
        <path d="M104.008 351.992H40.008C26.776 351.992 16.008 341.224 16.008 327.992V263.992C16.008 259.568 12.424 255.992 8.008 255.992C3.592 255.992 0.00799561 259.568 0.00799561 263.992V327.992C0.00799561 350.048 17.952 367.992 40.008 367.992H104.008C108.424 367.992 112.008 364.416 112.008 359.992C112.008 355.568 108.424 351.992 104.008 351.992Z" />
        <path d="M44 258.965L44 109.31C43.9984 104.188 46.0255 99.2761 49.634 95.6541C53.243 92.0327 58.1375 89.9984 63.2412 90L303.759 90C308.863 89.9984 313.757 92.0327 317.366 95.6541C320.975 99.2755 323.002 104.188 323 109.31L323 258.965C323.002 264.087 320.975 268.999 317.366 272.621C313.757 276.243 308.863 278.277 303.759 278.275H217.172" />
        <path d="M323 109.31V258.965C323.002 264.087 320.975 268.999 317.366 272.621C313.757 276.242 308.863 278.277 303.759 278.275H63.2412C58.1375 278.277 53.243 276.242 49.6339 272.621C46.0255 268.999 43.9984 264.087 44 258.965V109.31C43.9984 104.188 46.0255 99.2761 49.6339 95.6541C53.243 92.0322 58.1375 89.9984 63.2412 90H149.828" />
        <path d="M145.017 234.828H69.1416C66.4851 234.828 64.3311 232.666 64.3311 230C64.3311 227.333 66.4846 225.172 69.1416 225.172H145.017C147.674 225.172 149.828 227.333 149.828 230C149.828 232.666 147.674 234.828 145.017 234.828Z" fill="#424242"/>
        <path d="M106.535 254.138H69.1416C66.4851 254.138 64.3311 251.976 64.3311 249.31C64.3311 246.643 66.4846 244.482 69.1416 244.482H106.535C109.191 244.482 111.345 246.643 111.345 249.31C111.345 251.976 109.191 254.138 106.535 254.138Z" fill="#424242"/>
        <path d="M137.261 193.008L120.553 184.742C118.404 183.689 117.038 181.502 117.03 179.102V172.616C117.591 171.973 118.119 171.302 118.611 170.605C120.862 167.441 122.613 163.949 123.805 160.25C125.993 159.603 127.503 157.598 127.526 155.309V148.386C127.517 146.915 126.88 145.518 125.776 144.55V134.541C125.776 134.541 127.853 118.965 106.535 118.965C85.2157 118.965 87.294 134.541 87.294 134.541V144.55C86.19 145.518 85.5525 146.915 85.5448 148.386V155.309C85.5547 157.081 86.4674 158.725 87.9638 159.665C89.1304 164.385 91.2872 168.8 94.2908 172.616V178.941C94.2843 181.26 93.0081 183.387 90.969 184.477L75.3641 192.899C70.8761 195.298 68.0665 199.981 68.0523 205.084V210.69H145.018V205.423C145.001 200.139 141.993 195.325 137.261 193.008Z" fill="#424242"/>
    </symbol>
</svg>