<svg width="254" height="244" viewBox="0 0 254 244" fill="none" xmlns="http://www.w3.org/2000/svg">
<path d="M215.402 0H100.063C95.7745 0 92.2995 3.33077 92.2995 7.44141C92.2995 11.552 95.7745 14.8828 100.063 14.8828H215.402C228.017 14.8828 238.279 24.7442 238.279 36.8667V206.667C238.279 218.789 228.017 228.651 215.402 228.651H38.5977C25.9832 228.651 15.7207 218.789 15.7207 206.667V36.8667C15.7207 24.7442 25.9832 14.8828 38.5977 14.8828H62.1733C66.462 14.8828 69.937 11.552 69.937 7.44141C69.937 3.33077 66.462 0 62.1733 0H38.5977C17.4215 0 0.193359 16.5388 0.193359 36.8667V206.667C0.193359 226.995 17.4215 243.533 38.5977 243.533H215.402C236.579 243.533 253.807 226.995 253.807 206.667V36.8667C253.807 16.5388 236.579 0 215.402 0V0Z" fill="#424242"/>
</svg> 
