<svg width="254" height="244" viewBox="0 0 254 244" fill="none" xmlns="http://www.w3.org/2000/svg">
<path d="M215.402 0H100.063C95.7745 0 92.2995 3.33077 92.2995 7.44141C92.2995 11.552 95.7745 14.8828 100.063 14.8828H215.402C228.017 14.8828 238.279 24.7442 238.279 36.8667V206.667C238.279 218.789 228.017 228.651 215.402 228.651H38.5977C25.9832 228.651 15.7207 218.789 15.7207 206.667V36.8667C15.7207 24.7442 25.9832 14.8828 38.5977 14.8828H62.1733C66.462 14.8828 69.937 11.552 69.937 7.44141C69.937 3.33077 66.462 0 62.1733 0H38.5977C17.4215 0 0.193359 16.5388 0.193359 36.8667V206.667C0.193359 226.995 17.4215 243.533 38.5977 243.533H215.402C236.579 243.533 253.807 226.995 253.807 206.667V36.8667C253.807 16.5388 236.579 0 215.402 0V0Z" fill="#7A8A65"/>
<path d="M48.8892 91.0391C38.8647 99.316 37.7188 113.88 46.3334 123.507L103.683 187.589C108.056 192.782 114.79 195.762 122.001 195.762C130.431 195.798 138.431 191.605 142.52 184.894L181.73 125.661C184.027 122.191 182.954 117.592 179.333 115.39C175.712 113.186 170.915 114.216 168.618 117.687L129.336 177.031C127.002 181.627 118.556 182.211 115.552 177.992L58.1197 113.818C55.067 110.407 55.4717 105.246 59.0202 102.317C62.4125 99.4013 68.0592 99.8101 70.9556 103.184L114.242 151.55C117.441 155.316 124.092 154.854 126.689 150.692L182.317 66.6571C184.678 62.9206 190.203 61.7329 193.997 64.1538C197.947 66.5658 199.115 71.6161 196.603 75.4132L188.941 86.989C186.644 90.4587 187.716 95.0575 191.337 97.2592C194.957 99.4608 199.754 98.4329 202.052 94.9623L209.714 83.3874C216.805 72.6747 213.498 58.417 202.34 51.6027C191.59 44.7387 175.898 48.0983 169.205 58.6859L119.197 134.233L82.7388 93.4968C74.5362 83.9331 58.5027 82.7703 48.8892 91.0391V91.0391Z" fill="#7A8A65"/>
</svg>
